<?xml version="1.0" standalone="no"?>
<!DOCTYPE svg PUBLIC "-//W3C//DTD SVG 1.1//EN" "http://www.w3.org/Graphics/SVG/1.1/DTD/svg11.dtd" >
<!--
2013-9-30: Created.
-->
<svg>
<metadata>
Created by iconfont
</metadata>
<defs>

<font id="iconfont" horiz-adv-x="1024" >
  <font-face
    font-family="iconfont"
    font-weight="500"
    font-stretch="normal"
    units-per-em="1024"
    ascent="896"
    descent="-128"
  />
    <missing-glyph />
    
    <glyph glyph-name="shanchu" unicode="&#58892;" d="M382.578 168.184c11.914 0 21.553 9.64 21.553 21.553v237.088c0 11.914-9.639 21.553-21.553 21.553s-21.553-9.641-21.553-21.553v-237.089c0-11.914 9.64-21.552 21.553-21.552zM511.902 168.184c11.915 0 21.553 9.64 21.553 21.553v237.088c0 11.914-9.64 21.553-21.553 21.553s-21.553-9.641-21.553-21.553v-237.089c-0.001-11.914 9.639-21.552 21.553-21.552zM641.223 168.184c11.914 0 21.553 9.64 21.553 21.553v237.088c0 11.914-9.64 21.553-21.553 21.553s-21.553-9.641-21.553-21.553v-237.089c0-11.914 9.639-21.552 21.553-21.552zM748.99 663.918h-89.267c-9.64 37.087-43.107 64.66-83.162 64.66h-129.322c-40.056 0-73.523-27.574-83.162-64.66h-89.266c-47.548 0-86.213-38.688-86.213-86.214v-21.554h21.553v-21.553h43.107v-409.519c0-47.528 38.666-86.214 86.214-86.214h344.858c47.55 0 86.214 38.687 86.214 86.214v409.52h43.107v21.553h21.553v21.554c0 47.527-38.665 86.213-86.213 86.213zM447.239 685.471h129.322c15.869 0 29.636-8.735 37.109-21.553h-203.538c7.473 12.818 21.238 21.553 37.108 21.553zM727.437 125.077c0-23.785-19.343-43.107-43.107-43.107h-344.858c-23.763 0-46.096 19.323-46.096 43.107l2.989 409.519h431.072v-409.519zM231.703 577.703c0 23.785 19.344 43.107 43.107 43.107h474.181c23.765 0 43.107-19.323 43.107-43.107h-560.395z"  horiz-adv-x="1024" />

    
    <glyph glyph-name="system" unicode="&#58882;" d="M920.1306 94.814h-13.967360000000001v181.57568c0 53.9054-43.8661 97.7705-97.7705 97.7705h-237.44512v111.73888000000001h13.967360000000001c23.0523 0 41.9031 18.8774 41.9031 41.9011V667.474688c0 23.0789-18.8508 41.9021-41.9031 41.9021H445.241344c-23.0513 0-41.9011-18.8232-41.9011-41.9021v-139.672576c0-23.0236 18.8508-41.9011 41.9011-41.9011h13.968384v-111.73888000000001H221.764608c-53.9054 0-97.7715-43.8651-97.7715-97.7705v-181.57568h-13.967360000000001c-23.0513 0-41.9011-18.8221-41.9011-41.9v-139.67360000000002c0-23.0236 18.8508-41.9021 41.9011-41.9021h139.67360000000002c23.0523 0 41.9011 18.8785 41.9011 41.9021v139.67360000000002c0 23.0779-18.8498 41.9-41.9011 41.9h-13.967360000000001v167.60832000000002h223.47776000000002v-167.60832000000002h-13.968384c-23.0513 0-41.9011-18.8221-41.9011-41.9v-139.67360000000002c0-23.0236 18.8508-41.9021 41.9011-41.9021h139.672576c23.0523 0 41.9031 18.8785 41.9031 41.9021v139.67360000000002c0 23.0779-18.8508 41.9-41.9031 41.9h-13.967360000000001v167.60832000000002h223.47673600000002v-167.60832000000002h-13.967360000000001c-23.0523 0-41.9021-18.8221-41.9021-41.9v-139.67360000000002c0-23.0236 18.8498-41.9021 41.9021-41.9021h139.672576c23.0513 0 41.9021 18.8785 41.9021 41.9021v139.67360000000002C962.0326 75.9918 943.1818 94.814 920.1306 94.814zM235.732-72.7923h-111.73888000000001V38.94553600000006h111.73888000000001V-72.79232000000002zM570.9476-72.7923H459.209728V38.94553600000006h111.73785600000001V-72.79232000000002zM459.2097 541.7684v111.73888000000001h111.73785600000001v-111.73888000000001H459.209728zM906.1632-72.7923h-111.73888000000001V38.94553600000006h111.73888000000001V-72.79232000000002z"  horiz-adv-x="1024" />

    
    <glyph glyph-name="desktop" unicode="&#59009;" d="M39.384615 12l459.487179 0 0-48c0-8.832 5.881436-16 13.128205-16s13.128205 7.168 13.128205 16l0 48 459.487179 0c21.714051 0 39.384615 21.536 39.384615 48l0 704c0 26.464-17.670564 48-39.384615 48l-945.230769 0c-21.714051 0-39.384615-21.536-39.384615-48l0-704c0-26.464 17.670564-48 39.384615-48zM26.25641 764c0 8.832 5.881436 16 13.128205 16l945.230769 0c7.246769 0 13.128205-7.168 13.128205-16l0-704c0-8.832-5.881436-16-13.128205-16l-945.230769 0c-7.246769 0-13.128205 7.168-13.128205 16l0 704zM91.897436 108l840.205128 0c7.246769 0 13.128205 7.168 13.128205 16l0 576c0 8.832-5.881436 16-13.128205 16l-840.205128 0c-7.246769 0-13.128205-7.168-13.128205-16l0-576c0-8.832 5.881436-16 13.128205-16zM105.025641 684l813.948718 0 0-544-813.948718 0 0 544zM367.589744-84c-29.932308 0-52.512821-27.52-52.512821-64l0-48c0-8.832 5.881436-16 13.128205-16l367.589744 0c7.246769 0 13.128205 7.168 13.128205 16l0 45.6c0 37.216-23.053128 66.4-52.512821 66.4l-288.820513 0zM682.666667-150.4l0-29.6-341.333333 0 0 32c0 18.848 10.791385 32 26.25641 32l288.820513 0c14.966154 0 26.25641-14.784 26.25641-34.4z"  horiz-adv-x="1024" />

    
    <glyph glyph-name="jia" unicode="&#59002;" d="M922.002466 263.555973c-5.358031 0-10.411117 1.228991-14.987343 3.294023-3.751441-1.941212-7.826246-3.294023-12.347213-3.294023l-355.332844 0 0-355.334891c0-1.064238-0.497327-1.989307-0.603751-3.025916 0.320295-1.989307 0.603751-4.002151 0.603751-6.082532 0-20.12741-16.318664-36.446074-36.443004-36.446074-20.12741 0-36.446074 16.318664-36.446074 36.446074 0 2.080382 0.275269 4.093225 0.613984 6.082532-0.124843 1.036609-0.613984 1.961678-0.613984 3.025916L466.44599 263.555973l-355.332844 0c-1.076518 0-1.992377 0.49835-3.03308 0.624217-1.984191-0.338714-3.994987-0.624217-6.077416-0.624217-20.125363 0-36.44505 16.317641-36.44505 36.446074 0 20.12434 16.319687 36.443004 36.44505 36.443004 2.082428 0 4.093225-0.283456 6.077416-0.604774 1.040702 0.105401 1.956561 0.604774 3.03308 0.604774l355.332844 0L466.44599 691.778918c0 1.085728 0.48914 1.992377 0.613984 3.043313-0.338714 1.974981-0.613984 3.985778-0.613984 6.068206 0 20.125363 16.318664 36.444027 36.446074 36.444027 20.12434 0 36.443004-16.318664 36.443004-36.444027 0-2.082428-0.283456-4.093225-0.603751-6.085602 0.106424-1.032516 0.603751-1.940189 0.603751-3.024893l0-355.333868 355.332844 0c4.520967 0 8.595772-1.351787 12.347213-3.290953 4.577249 2.064009 9.629311 3.290953 14.987343 3.290953 20.12434 0 36.440957-16.318664 36.440957-36.443004C958.443423 279.873614 942.126806 263.555973 922.002466 263.555973z"  horiz-adv-x="1024" />

    
    <glyph glyph-name="jian" unicode="&#58979;" d="M94.83132 335.815717l832.971245 0 0-71.631434-832.971245 0 0 71.631434Z"  horiz-adv-x="1024" />

    
    <glyph glyph-name="union" unicode="&#58953;" d="M673.231743 177.21098l-67.036976 71.578681-2.016644 1.99475-48.247405 49.893074 118.671807 121.904762 0.889123 1.189552c14.224756 16.37641 23.117205 37.725099 23.117205 61.344641 0 50.998701-41.569858 92.553963-92.747357 92.553963-21.914274 0-41.85934-7.628702-57.811258-20.423077l-0.841687-0.625184-34.432546-32.196966-0.145957-0.108252-32.482799 31.368659-0.864797 0.85385c-15.955567 13.28698-36.595147 21.132186-58.966753 21.132186-51.130062 0-92.675594-41.555263-92.675594-92.553963 0-24.149853 9.178282-45.67734 23.69252-62.07686l117.809443-122.711176L351.117338 178.557436l-0.987644-1.584853c-14.89616-16.483446-23.80807-38.254195-23.80807-62.186328 0-51.08141 41.399575-92.456658 92.647619-92.456658 22.203756 0 42.915098 7.856152 58.772144 20.974065l0.987644 0.841687 32.45969 31.260407 0.265156 0 34.336457-32.100878 0.790602-0.838038c15.978677-12.664229 36.067268-20.136027 57.957215-20.136027 51.249261 0 92.770466 41.375249 92.770466 92.456658 0 23.593999-8.845013 44.956068-23.164641 61.320315L673.231743 177.21098zM395.712162 465.401257c-4.37507 5.261761-6.967029 12.181354-6.967029 19.715184 0 16.89091 13.886622 30.670496 30.85051 30.670496 7.087444 0 13.59714-2.283016 18.766461-6.199537l0.287049-0.433007 27.07873-26.886553-36.568388-32.244402 45.988716-46.81824 36.305665 35.030971 36.738671-35.920094 46.278198 47.610058-34.40822 33.651674 0.310159 0.24083 23.982002 23.750903c5.502591 5.299467 12.684907 8.217397 20.877977 8.217397 17.107413 0 30.85051-13.779586 30.85051-30.670496 0-8.566478-3.3631-16.302215-9.225718-22.083341l-115.090988-118.359216L395.712162 465.401257zM603.792552 83.935745c-8.145634 0-15.32795 3.124703-20.806215 8.071439l-24.339598 24.316488 0.623968 0.531528 33.808578 33.638295-46.325634 48.536887L510.08431 161.760182l-0.361244 0.336918-36.063619 35.030971-45.606794-46.972711 36.328775-32.749172-27.341453-27.103056c-5.141346-3.942064-11.775106-6.367388-18.88566-6.367388-17.109846 0-30.854159 13.839186-30.854159 30.85051 0 7.519234 2.64426 14.466802 7.089876 19.774783l115.98376 120.48776 115.138424-118.132982c5.72031-5.83586 9.130846-13.454831 9.130846-22.129561C634.643063 97.776147 620.851313 83.935745 603.792552 83.935745zM409.263082 258.126064l-42.574531 42.084358 43.658264 41.965159-43.756785 45.363532-44.499951-43.272694-0.480443-0.24083-20.807431 20.770942-4.566031 3.880032c-16.530882 15.342546-37.989039 24.604754-62.230116 24.604754-51.19331 0-92.568559-41.411738-92.568559-92.602616 0-51.26264 41.375249-92.710867 92.568559-92.710867 24.844367 0 47.573569 9.791303 64.199323 25.902557l23.787393 23.091663 0.385571 0.300429 44.066945-43.526903L409.263082 258.126064zM254.309936 277.550549c-5.28852-4.853081-12.422183-7.868315-20.302662-7.868315-17.04903 0-30.925921 13.97298-30.925921 30.995251 0 16.976052 13.876891 30.85051 30.925921 30.85051 6.821072 0 13.260222-2.2222 18.428327-6.054796 1.802573-1.500928 3.505408-3.159976 5.069584-4.829971l19.941418-19.582606L254.309936 277.550549zM789.862581 392.776548c-24.292162 0-45.650581-9.513984-62.182679-24.760441l-4.660903-3.759617-21.000824-20.84392-0.336918 0.18123-42.046652 40.690466-2.020292 2.174764-43.633938-44.884306 43.106059-41.880018 0.242046-0.251776-42.77279-41.988269 42.649942-44.356427 43.228906 42.673052 1.008322 0.962102 24.292162-23.535616c16.697516-15.846099 39.235758-25.852689 64.127561-25.852689 51.133711 0 92.69992 41.566209 92.69992 92.686541C882.561285 351.317374 840.995075 392.776548 789.862581 392.776548zM789.862581 269.081376c-7.927915 0-15.085904 3.05294-20.469296 7.846422l-23.06612 23.593999 22.918947 22.681766c0 0 0.289482 0.18123 2.211253 1.621342 5.045258 3.977337 11.55617 6.199537 18.405217 6.199537 17.06241 0 30.902812-13.767423 30.902812-30.995251C820.764176 282.958268 806.92499 269.081376 789.862581 269.081376z"  horiz-adv-x="1024" />

    
    <glyph glyph-name="hide" unicode="&#58956;" d="M511.601 754.117c-232.546 0-431.123-144.626-511.601-348.784 80.478-204.158 279.055-348.784 511.601-348.784s431.123 144.626 511.601 348.784c-80.478 204.158-279.055 348.784-511.601 348.784zM511.601 172.787c-128.365 0-232.546 104.181-232.546 232.546s104.181 232.546 232.546 232.546 232.546-104.181 232.546-232.546-104.181-232.546-232.546-232.546zM511.601 544.86c-77.24 0-139.527-62.357-139.527-139.527s62.288-139.528 139.527-139.528 139.527 62.288 139.527 139.528c0 77.171-62.356 139.527-139.527 139.527z"  horiz-adv-x="1024" />

    
    <glyph glyph-name="8080pxtubiaokuozhan100" unicode="&#59238;" d="M193.484 702.516h637.031v-637.031h-637.031v637.031z"  horiz-adv-x="1024" />

    
    <glyph glyph-name="hide3" unicode="&#58927;" d="M231.2 80l110.4 110.4c-20.8 32-33.6 70.4-33.6 112 0 112.8 91.2 203.2 204 203.2 40.8 0 79.2-12 111.2-32.8l90.4 90.4c-60.8 27.2-128 44.8-201.6 44.8C204.8 607.2 0 300 0 300S86.4 170.4 231.2 80zM511.2 198.4c56.8 0 101.6 46.4 101.6 102.4 0 13.6-3.2 27.2-8 39.2L471.2 206.4C483.2 201.6 496.8 198.4 511.2 198.4zM511.2 402.4c-56 0-101.6-45.6-101.6-101.6 0-12.8 2.4-24.8 6.4-36L547.2 396C536 400 524 402.4 511.2 402.4zM788 523.2 680.8 416c22.4-32.8 35.2-72 35.2-115.2C716 188 624.8 97.6 512 97.6c-42.4 0-81.6 12.8-114.4 35.2L304.8 40c61.6-28 131.2-47.2 207.2-47.2 307.2 0 512 307.2 512 307.2S936 432.8 788 523.2zM980 804 1012.8 773.6 39.2-204 5.6-170.4Z"  horiz-adv-x="1024" />

    
    <glyph glyph-name="show3" unicode="&#58937;" d="M512 607.2C204.8 607.2 0 300 0 300s204.8-307.2 512-307.2S1024 300 1024 300 819.2 607.2 512 607.2zM512 97.6c-112.8 0-204 91.2-204 204S399.2 504.8 512 504.8s204-91.2 204-204S624.8 97.6 512 97.6zM409.6 300.8c0 56 45.6 101.6 101.6 101.6 56 0 101.6-45.6 101.6-101.6S568 198.4 511.2 198.4 409.6 244 409.6 300.8L409.6 300.8z"  horiz-adv-x="1024" />

    
    <glyph glyph-name="down" unicode="&#59083;" d="M496.404-43.88c-0.002-7.056 1.552-34.058 31.924-34.058 30.376 0.002 31.923 27.006 31.925 34.058v771.712c-0.002 7.054-13.523 24.477-31.925 24.48-18.4-0.002-31.926-17.426-31.924-24.48l-0-771.712zM508.211-84.997c-4.991-4.988-22.987-25.178-1.509-46.657 21.479-21.476 41.669-3.478 46.658 1.507l225.9 194.599c4.986 4.989 7.745 26.87-5.266 39.884-13.014 13.012-34.899 10.255-39.885 5.266l-225.897-194.6zM328.783 101.946c-4.989 4.991-25.177 22.987-46.657 1.51-21.477-21.479-3.479-41.67 1.507-46.659l227.323-194.598c4.989-4.986 26.87-7.744 39.884 5.266 13.011 13.014 10.255 34.899 5.266 39.884l-227.324 194.596z"  horiz-adv-x="1024" />

    
    <glyph glyph-name="up" unicode="&#59088;" d="M756.086 536.851l-227.323 194.598c-2.46 2.46-9.037 4.374-16.629 4.123-4.332 0.166-8.351-0.791-11.894-2.256-4.080-1.491-8.016-3.787-11.362-7.132-0.084-0.084-0.16-0.173-0.243-0.258-0.939-0.826-1.712-1.565-2.279-2.132l-225.898-194.598c-4.986-4.989-7.745-26.87 5.266-39.885 13.014-13.011 34.899-10.254 39.884-5.265l173.856 149.766-0-767.997c0.002-7.054 13.523-24.477 31.926-24.48 18.4 0.002 31.926 17.426 31.924 24.48l0 769.381 167.623-143.493c4.989-4.991 25.177-22.987 46.657-1.509 21.476 21.48 3.478 41.67-1.508 46.659z"  horiz-adv-x="1024" />

    
    <glyph glyph-name="right" unicode="&#58898;" d="M996.471528 298.931668 594.607928 727.291736 594.607928 478.992627 78.834998 478.992627 78.834998 118.86764 594.607928 118.86764 594.607928-129.430446Z"  horiz-adv-x="1024" />

    
    <glyph glyph-name="mysql" unicode="&#58881;" d="M681.27 520.23C679.74 523.43 678.2 526.63 676.67 529.83 674.67 532.66 671.83 534.77 670.21 538.06 670.06 538.06 669.91 538.06 669.75 538.06 669.75 538.21 669.75 538.37 669.75 538.52 672.28 539.07 674.67 539.49 678.05 539.43 679.71 537.84 682.25 536.76 683.57 534.86 684.56 533.44 684.73 531.94 685.88 530.74 685.89 525.87 684.59 522.68 681.73 520.69 681.58 520.53 681.42 520.38 681.27 520.23ZM887.65 314.48C880.02 319.28 871.17 322.02 863.24 326.82 858.78 329.52 854.5 332.85 850.34 335.97 846.53 338.82 842.27 344.25 839.74 348.31 838.43 350.43 838.17 352.99 836.52 354.71 837.01 358.45 841.8 358.48 844.81 359.74 855.39 364.17 867.77 365.67 883.97 365.23 883.47 369.36 873.42 374.37 870.15 376.66 863.61 381.23 856.85 386.2 849.88 390.38 846.23 392.56 839.91 394.25 836.06 395.86 830.56 398.17 818.46 400.4 815.33 404.55 809.37 412.45 805.26 422.03 801.05 431.53 796.82 441.04 791.47 451.06 787.22 460.79 785.12 465.61 784.09 469.96 781.7 474.51 766.85 502.76 745.14 526.45 718.59 543.09 709.87 548.55 700.27 553.58 689.56 556.81 683.5 558.63 676.24 557.61 669.75 559.09 668.37 559.09 666.99 559.09 665.61 559.09 661.98 560.15 658.94 563.97 655.93 565.95 649.68 570.07 643.51 572.97 636.13 576.01 633.34 577.16 625.9 579.88 623.23 577.84 621.66 577.33 620.96 576.67 620.46 575.1 618.9 572.76 620.33 569.13 621.38 566.87 624.34 560.48 628.62 556.6 632.44 551.32 635.89 546.56 640.09 541.13 642.58 535.77 647.77 524.56 650.08 512.12 655.01 501.02 656.91 496.77 659.64 491.91 662.38 488.22 664.6 485.24 668.56 482.98 669.75 479.08 672.26 475.16 666.06 461.82 664.69 457.59 659.38 441.22 660.5 418.32 666.53 404.09 668.91 398.47 671.17 391.91 677.59 390.38 678.06 390.74 677.7 390.55 678.51 390.83 679.87 401.79 680.35 412.35 684.03 421.01 686.34 426.43 690.73 430.14 693.71 434.73 695.9 433.48 695.88 429.83 696.93 427.41 699.65 421.15 702.46 414.36 705.69 408.21 712.45 395.32 719.86 382.94 728.26 371.63 731.24 367.61 735.25 363.25 738.85 359.74 740.39 358.25 742.26 357.48 743.46 355.63 743.62 355.63 743.77 355.63 743.92 355.63 743.92 355.48 743.92 355.32 743.92 355.17 737.73 357.27 733.97 363.47 729.18 367.06 719.95 373.97 709.06 384.23 702.92 394.03 700.16 399.52 697.39 405.01 694.63 410.49 694.63 410.65 694.63 410.8 694.63 410.95 693.48 409.42 693.84 407.75 693.25 405.46 690.64 395.4 692.68 384 683.57 380.32 673.17 376.11 665.6 387.09 662.38 392.21 651.91 408.88 649.2 436.89 656.4 459.42 657.99 464.42 658.15 470.56 661 474.51 660.54 478.06 657.63 479.07 655.93 481.36 653.17 485.11 650.75 489.52 648.56 493.71 644.23 501.99 641.32 511.73 637.97 520.69 636.61 524.32 636.33 527.77 634.74 531.2 632.32 536.43 627.99 541.64 624.61 546.29 619.79 552.92 606.31 565.68 611.71 578.75 620.27 599.47 649.91 583.71 661.46 576.47 664.36 574.65 667.58 570.89 670.68 569.61 675.74 569.3 680.81 569 685.88 568.7 695.32 566.47 704.26 564.77 711.68 560.47 746.56 540.21 769.07 519.61 789.99 485.48 794.35 478.37 796.63 470.55 800.12 462.62 805.25 450.99 810.92 438.92 816.71 427.87 819.47 422.59 821.42 416.85 825 412.32 826.51 410.41 830.54 409.81 832.83 408.66 839.65 405.25 847.59 402.64 854.02 398.61 865.62 391.34 876.87 382.63 887.19 373.92 891.13 370.58 893.71 365.71 897.33 362.03 897.33 361.42 897.33 360.81 897.33 360.2 894.1 359.29 890.88 358.37 887.65 357.46 880.5 355.62 874.31 356.1 867.38 354.26 863.26 353.16 858.03 351.55 853.56 351.05 853.72 350.9 853.87 350.75 854.02 350.6 856.65 343.32 870.76 337.26 877.06 332.76 884.96 327.14 892.39 320.36 898.25 312.65 900.24 310.67 902.24 308.69 904.24 306.7 905.6 304.75 905.98 302.18 907.46 300.3 907.46 300.15 907.46 300 907.46 299.85 904.64 300.84 903.18 303.3 901.01 304.88 896.62 308.07 892.15 311.64 887.65 314.48ZM636.73 336.08 686.76 336.08C689.3 336.08 691.58 335.91 694.12 335.57 716.22 332.55 727.39 322.97 727.39 307.17L727.39 245C727.39 232.19 722.65 225.33 711.71 220.86L737.67 197.6 707.07 197.6 686.07 216.42 664.92 215.09 636.73 215.09C631.91 215.09 626.83 215.76 621.24 217.28 604.48 221.81 596.35 230.55 596.35 245L596.35 307.17C596.35 322.97 607.53 332.55 629.62 335.57 631.91 335.91 634.45 336.08 636.73 336.08ZM624.8 246.51C624.8 245.67 625.05 244.83 625.31 243.83 626.83 236.6 633.69 232.57 644.1 232.57L668.04 232.57 646.05 252.28 676.65 252.28 695.83 235.09C699.37 236.96 701.7 239.82 702.51 243.49 702.76 244.33 702.76 245.17 702.76 246.01L702.76 305.66C702.76 306.33 702.76 307.17 702.51 308.01 700.99 314.74 694.13 318.6 683.97 318.6L644.1 318.6C632.42 318.6 624.8 313.56 624.8 305.66L624.8 246.51ZM502.75 318.69C493.37 317.86 490.58 316.35 489.31 310.98 489.06 310.14 489.06 309.47 489.06 308.8L489.06 296.89C489.06 296.06 489.06 295.39 489.31 294.55 490.58 287.5 495.65 284.32 506.29 284.32L538.22 284.32C546.08 284.32 554.19 282.98 560.78 280.46 573.2 275.77 579.53 268.72 579.53 261.18L579.53 242.06C579.53 232.84 573.96 225.8 562.55 220.6 555.71 217.41 547.09 215.57 538.22 215.57L462.45 215.57 462.45 233.01 535.18 233.01C536.2 233.01 536.96 233.17 537.97 233.17 543.04 233.51 546.84 234.85 549.12 236.86 551.66 238.88 552.92 241.22 552.92 243.07L552.92 258.33C552.92 260 552.42 261.51 550.9 263.02 548.36 266.04 544.81 267.55 536.45 268.22 535.69 268.39 534.68 268.39 533.66 268.39L506.29 268.39C503.76 268.39 501.22 268.56 498.69 268.72 476.14 271.07 462.7 281.13 462.7 292.87L462.7 308.13C462.7 321.54 469.55 329.26 485.26 334.12 490.33 335.63 495.9 336.3 506.55 336.3L580.55 336.3 580.55 318.86 505.28 318.86C504.52 318.86 503.51 318.69 502.75 318.69ZM400.43 179 317.21 179 317.21 196.6C317.35 196.6 400.36 196.58 400.57 196.6 417.54 198.38 415.53 206.75 415.53 209.57L415.53 216.43 359.51 216.43C333.45 216.67 316.85 227.96 316.65 240.94 316.63 242.15 317.21 299.08 316.63 299.65L342.98 299.65 342.98 242.74C342.74 239.65 343.98 232.39 358.42 232.16 365.78 232.05 415.27 232.16 415.73 232.16L415.73 299.92 442.14 299.92C442.26 299.92 442.11 207.52 442.11 207.13 442.26 184.33 413.62 179.39 400.43 179ZM268.36 318.86 227.56 228.81C222.75 217.91 216.41 214.06 203.49 214.06 190.56 214.06 183.97 217.91 179.16 228.81L138.36 318.86 138.36 215.57 112 215.57 112 318.69C112 328.76 116.05 333.62 124.42 336.13 144.44 342.34 158.12 336.97 163.95 323.56L202.73 234.68 242.77 323.56C248.85 336.97 262.28 342.34 282.3 336.13 290.66 333.62 294.72 328.76 294.72 318.69L294.72 215.57 268.36 215.57 268.36 318.86ZM770.31 246.09C770.31 236.86 776.13 233.01 791.59 233.01L860.78 233.01 860.78 215.57 792.1 215.57C789.57 215.57 787.03 215.73 784.5 215.9 757.38 217.91 743.95 227.98 743.95 245.92L743.95 336.3 770.31 336.3 770.31 246.09ZM892.57 252.78C902.83 252.78 912 245.02 912 233.5 912 221.99 902.83 214.22 892.57 214.22 882.32 214.22 873.15 221.99 873.15 233.5 873.15 245.02 882.32 252.78 892.57 252.78ZM892.57 218.23C900.91 218.23 907.65 224.76 907.65 233.5 907.65 242.24 900.91 248.77 892.57 248.77 884.13 248.77 877.5 242.24 877.5 233.5 877.5 224.76 884.13 218.23 892.57 218.23ZM901.79 238.18C901.79 234.17 899.2 232.52 895.79 232.16L902.16 222.5 897.81 222.5 892 232.01 888.53 232.01 888.53 222.5 884.81 222.5 884.81 244.5 893.46 244.5C898.95 244.5 901.79 242.65 901.79 238.18ZM888.53 241.42 888.53 235.09 892.52 235.09C895.32 235.09 897.75 235.35 897.75 238.44 897.75 241.01 895.06 241.42 892.83 241.42L888.53 241.42Z"  horiz-adv-x="1024" />

    
    <glyph glyph-name="1111111" unicode="&#58904;" d="M1290.25548 809.673369l25.79995 38.699924-25.79995 38.699924-1264.197531 0-25.79995-38.699924 25.79995-38.699924L1290.25548 809.673369zM26.057949 422.674124l-25.79995-38.699924 25.79995-38.699924 1264.197531 0 25.79995 37.900126-25.79995 39.499723L26.057949 422.674124zM26.057949-41.724969l-25.79995-37.100328 25.79995-40.299521 1264.197531 0 25.79995 38.699924-25.79995 38.699924L26.057949-41.724969z"  horiz-adv-x="1317" />

    
    <glyph glyph-name="performance" unicode="&#58886;" d="M64 800c0 0-64-12.8-64-51.2l0-646.4c0 0 0-134.4 128-134.4l857.6 0c0 0 44.8 19.2 44.8 57.6s-44.8 64-44.8 64l-812.8 0c0 0-44.8-6.4-44.8 38.4l0 160 249.6 76.8 256-204.8 396.8 371.2 0 192-384-371.2-256 192-256-89.6 0 294.4c-6.4 6.4-32 51.2-70.4 51.2z"  horiz-adv-x="1031" />

    
    <glyph glyph-name="update1" unicode="&#59011;" d="M894.72 100.522667l-85.418667 85.418667c0.128 0.170667 0.170667 0.341333 0.298667 0.512l-158.890667 158.890667c0.042667 0.597333 37.248 37.248 37.248 37.248l178.773333 0 1.706667 1.493333c-0.853333 196.736-160.426667 356.053333-357.418667 356.053333-72.704 0-140.202667-22.016-196.650667-59.306667L228.949333 766.336C307.968 824.533333 405.333333 859.349333 511.018667 859.349333c263.296 0 476.757333-213.461333 476.757333-476.714667C987.776 276.906667 952.96 179.584 894.72 100.522667zM369.493333 419.882667c-0.042667-0.597333-37.248-37.248-37.248-37.248l-178.773333 0c0-197.461333 160.085333-357.546667 357.546667-357.546667 72.192 0 139.093333 21.76 195.285333 58.538667l85.589333-85.589333c-78.848-57.685333-175.701333-92.117333-280.874667-92.117333-263.296 0-476.757333 213.461333-476.757333 476.757333 0 105.173333 34.474667 202.069333 92.16 280.874667l85.589333-85.589333C211.925333 577.792 211.882667 577.664 211.797333 577.536L369.493333 419.882667z"  horiz-adv-x="1024" />

    
    <glyph glyph-name="show1" unicode="&#58917;" d="M776.227 13.211c-273.055 0-556.183 277.906-556.183 370.789 0 122.7 283.128 370.789 556.183 370.789 273.055 0 556.183-277.164 556.183-370.789 0-97.733-283.128-370.789-556.183-370.789zM776.227 692.991c-238.912 0-494.385-206.745-494.385-308.991 0-77.403 255.473-308.991 494.385-308.991 238.912 0 494.385 235.512 494.385 308.991 0 75.486-255.473 308.991-494.385 308.991zM776.227 198.606c-102.399 0-185.394 83.026-185.394 185.394 0 102.399 82.995 185.394 185.394 185.394 102.399 0 185.394-82.995 185.394-185.394 0-102.368-82.995-185.394-185.394-185.394z"  horiz-adv-x="1536" />

    
    <glyph glyph-name="menu" unicode="&#58903;" d="M980.45781 703.369771c0-16.909112-13.70821-30.616298-30.616298-30.616298L92.579023 672.753473c-16.908088 0-30.616298 13.70821-30.616298 30.616298l0 0c0 16.910135 13.70821 30.616298 30.616298 30.616298l857.262488 0C966.7496 733.986069 980.45781 720.279906 980.45781 703.369771L980.45781 703.369771zM980.45781 397.204743c0-16.908088-13.70821-30.615275-30.616298-30.615275L92.579023 366.589468c-16.908088 0-30.616298 13.707187-30.616298 30.615275l0 0c0 16.909112 13.70821 30.616298 30.616298 30.616298l857.262488 0C966.7496 427.822065 980.45781 414.113855 980.45781 397.204743L980.45781 397.204743zM980.45781 91.038692c0-16.907065-13.70821-30.615275-30.616298-30.615275L92.579023 60.423417c-16.908088 0-30.616298 13.70821-30.616298 30.615275l0 0c0 16.910135 13.70821 30.618345 30.616298 30.618345l857.262488 0C966.7496 121.657037 980.45781 107.948827 980.45781 91.038692L980.45781 91.038692z"  horiz-adv-x="1024" />

    
    <glyph glyph-name="icon-log" unicode="&#58895;" d="M860.008 614.924h-96.702v55.783c0 10.379-8.404 18.814-18.814 18.814-10.412 0-18.814-8.435-18.814-18.814v-55.783h-161.611v55.783c0 10.379-8.435 18.814-18.814 18.814-10.411 0-18.814-8.435-18.814-18.814v-55.783h-161.642v55.783c0 10.379-8.404 18.814-18.814 18.814s-18.814-8.435-18.814-18.814v-55.783h-101.876c-10.379 0-18.814-8.435-18.814-18.814v-498.817c0-10.379 8.435-18.814 18.814-18.814h634.716c10.412 0 18.814 8.404 18.814 18.814v498.817c0 10.412-8.404 18.814-18.814 18.814zM841.195 116.107h-597.087v461.22h83.032v-58.228c0-10.379 8.404-18.814 18.814-18.814 10.411 0 18.814 8.404 18.814 18.814v58.228h161.611v-58.228c0-10.379 8.436-18.814 18.814-18.814 10.411 0 18.814 8.404 18.814 18.814v58.228h161.611v-58.228c0-10.379 8.435-18.814 18.814-18.814 10.412 0 18.814 8.404 18.814 18.814v58.228h77.889v-461.22zM736.747 420.797h-222.284c-10.411 0-18.814-8.436-18.814-18.814s8.435-18.814 18.814-18.814h222.284c10.379 0 18.814 8.404 18.814 18.814 0 10.379-8.436 18.814-18.814 18.814zM736.747 238.585h-222.284c-10.411 0-18.814-8.435-18.814-18.814s8.435-18.814 18.814-18.814h222.284c10.379 0 18.814 8.435 18.814 18.814 0 10.412-8.436 18.814-18.814 18.814zM432.497 453.563h-78.609c-10.412 0-18.814-8.404-18.814-18.814v-78.578c0-10.379 8.435-18.814 18.814-18.814h78.609c10.412 0 18.814 8.436 18.814 18.814v78.578c0 10.379-8.435 18.814-18.814 18.814zM413.652 374.984h-40.952v40.952h40.982v-40.952zM432.497 268.404h-78.609c-10.412 0-18.814-8.435-18.814-18.814v-78.642c0-10.379 8.435-18.814 18.814-18.814h78.609c10.412 0 18.814 8.435 18.814 18.814v78.642c0 10.412-8.435 18.814-18.814 18.814zM413.652 189.762h-40.952v41.047h40.982v-41.047z"  horiz-adv-x="1127" />

    
    <glyph glyph-name="yanchushenqing" unicode="&#58900;" d="M940.703387 315.357644l-46.293349 52.699246c-12.308327 12.275581-28.553313 18.367323-44.795229 18.273179-16.307408-0.093121-32.613792-6.371104-45.108361-18.805298L447.210903 75.097628l0-138.599661 137.007397 0L940.266435 225.383446C965.068308 250.24774 965.254549 290.767596 940.703387 315.357644zM561.413921 0.817877l-49.918923 0 0 51.508117 337.619414 270.403546c0 0.031722 0 0.093121 0.062422 0.093121l0.064468 0.064468 45.730531-53.240575L561.413921 0.817877zM127.335618 768.180869l447.824375 0 0-255.900228 191.925171 0 0-63.975057 63.975057 0L831.060221 576.255699 575.161017 832.154903 127.335618 832.154903c-35.176151 0-63.975057-28.801976-63.975057-63.975057l0-767.707846c0-35.174104 28.798906-63.97608 63.975057-63.97608l255.899204 0 0 63.97608L127.335618 0.472 127.335618 768.180869zM643.133108 700.206732 768.393973 574.911074 643.133108 574.911074 643.133108 700.206732z"  horiz-adv-x="1024" />

    
    <glyph glyph-name="sink" unicode="&#59054;" d="M204.284663 760.457977l57.141418 0 135.591141-373.625466-55.4458 0-38.999223 111.909789L155.988704 498.742301 115.463732 386.832512 63.578014 386.832512 204.284663 760.457977zM288.217261 539.945725l-57.537438 165.066453-59.770292-165.066453L288.217261 539.945725zM468.583165 702.046636l0 57.876152 491.950362 0 0-57.876152L468.583165 702.046636zM468.583165 470.539982l0 57.876152 491.950362 0 0-57.876152L468.583165 470.539982zM63.448054 239.034351l0 57.876152 897.085472 0 0-57.876152L63.448054 239.034351zM63.448054 7.527696l0 57.876152 607.703689 0 0-57.876152L63.448054 7.527696z"  horiz-adv-x="1024" />

    
    <glyph glyph-name="test" unicode="&#58888;" d="M751.063072 508.731203c10.095261 1.702815 20.55541-1.581185 30.89393-3.52726 14.960447-2.675852 24.447559-7.662668 34.54282-13.014372L816.499822 754.179831 689.275211 754.179831l0-63.612305 61.787861 0L751.063072 508.731203zM623.838461 754.179831 527.50778 754.179831c0 26.636893-9.122224 49.016748-27.245041 67.261195-18.244447 18.244447-40.624302 27.245041-67.261195 27.245041-27.853189 0-51.206081-9.122224-70.058677-27.245041-18.730966-18.244447-28.096449-40.624302-28.096449-67.261195l-96.330681 0 0-96.330681 385.322722 0L623.838461 754.179831zM454.894881 730.58368c-6.081482-6.081482-13.379261-9.122224-21.771707-9.122224-9.730372 0-17.879558 3.040741-24.569189 9.122224-6.689631 6.081482-9.973631 13.86578-9.973631 23.596152 0 8.514075 3.284 16.055113 9.973631 22.744744 6.689631 6.568001 14.838817 9.973631 24.569189 9.973631 8.514075 0 15.690224-3.284 21.771707-9.973631 5.959853-6.689631 9.122224-14.230669 9.122224-22.744744C463.895475 744.44946 460.854733 736.665162 454.894881 730.58368zM781.957002 0.197648c-10.21689 2.310963-20.79867 9.365483-30.89393 11.068298l0-27.853189-639.771944 0L111.291127 690.567526l49.016748 0 0 63.612305L45.854377 754.179831 45.854377-81.902364l770.645445 0 0 70.910084C806.282931-10.019242 794.606485-2.599834 781.957002 0.197648zM160.307875 557.869581l350.779903 0 0-58.138971-350.779903 0 0 58.138971ZM160.307875 441.591638l290.816487 0 0-58.138971-290.816487 0 0 58.138971ZM978.145623 17.347428 828.662787 169.871006c15.568595 27.974819 24.934078 59.112009 24.934078 96.57394 0 102.777052-84.046086 186.823138-186.823138 186.823138-102.777052 0-186.823138-84.046086-186.823138-186.823138 0-102.777052 84.046086-186.823138 186.823138-186.823138 34.299561 0 65.43675 9.365483 93.411569 24.934078l149.482836-149.482836L978.145623 17.347428 978.145623 17.347428zM542.224967 263.282575c0 68.477491 56.071267 124.548759 124.548759 124.548759 68.477491 0 124.548759-56.071267 124.548759-124.548759 0-68.477491-56.071267-124.548759-124.548759-124.548759C598.174605 138.733816 542.224967 194.805084 542.224967 263.282575L542.224967 263.282575zM542.224967 263.282575"  horiz-adv-x="1024" />

    
    <glyph glyph-name="instanceobjgcroot" unicode="&#58966;" d="M755.24 851.079 305.283 851.079c-47.685 0-86.46-38.677-86.46-86.199l0-484.814L99.04 218.314l0-192.633 142.737-73.584c15.83-17.425 38.126-28.836 63.507-28.836l533.25 0c47.652 0 86.427 38.709 86.427 86.231L924.961 667.487 755.24 851.079zM858.116 9.493c0-10.705-8.812-19.387-19.583-19.387L391.665-9.894l69.01 35.576L460.675 218.314l-175.008 90.222L285.667 764.88c0 10.673 8.812 19.355 19.616 19.355l414.38 0 0-150.562 138.453 0L858.116 9.493z"  horiz-adv-x="1024" />

    
    <glyph glyph-name="apply" unicode="&#59052;" d="M467.487159-65.068052 247.276506-65.068052c-70.913561 0-128.626761 57.713201-128.626761 128.626761L118.649745 712.01359c0 70.606575 57.508544 128.115119 128.115119 128.115119l288.872989 0 318.241231-282.835615 0-150.832018-61.397022 0L792.482063 529.766763 512.306985 778.731688 246.764865 778.731688c-36.838213 0-66.718097-29.982212-66.718097-66.718097l0-648.454882c0-37.04287 30.186869-67.229739 67.229739-67.229739l220.210653 0L467.487159-65.068052zM823.180574 512.780254 493.273908 512.882582 493.273908 809.430199 554.67093 809.430199 554.67093 574.279604 823.180574 574.177276ZM541.368242-72.12871c-8.083941 0-15.860897 3.172179-21.693614 9.004897-6.856001 6.856001-10.02818 16.474868-8.697911 26.093734L526.837614 74.303188c1.739582 12.177076 7.776956 24.047167 17.088838 33.25672l250.295193 250.295193c13.81433 13.81433 31.312481 22.819227 49.219946 25.377436 20.874988 2.967523 40.624363-3.172179 54.336365-16.781853l51.47117-51.47117c13.712002-13.712002 19.851704-33.461377 16.781853-54.336365-2.558209-17.907465-11.563106-35.303288-25.377436-49.219946L690.256021-38.87199c-9.209553-9.209553-21.079644-15.349256-33.25672-17.088838 0 0 0 0 0 0l-111.333267-15.860897C544.233437-72.026382 542.800839-72.12871 541.368242-72.12871zM652.701509-25.466973 652.701509-25.466973 652.701509-25.466973zM587.416009 64.275007l-9.925852-69.480963 69.480963 9.925852 250.192865 250.192865c7.162986 7.162986 8.595583 14.632957 8.083941 17.088838l-50.550215 50.550215c-2.455881 0.511642-10.02818-1.023284-17.088838-8.083941L587.416009 64.275007zM648.301389 4.924553 648.301389 4.924553zM888.875387 172.436095c-7.879285 0-15.758569 2.967523-21.693614 9.004897L764.137104 284.383332c-11.972419 11.972419-11.972419 31.41481 0 43.387229 11.972419 11.972419 31.41481 11.972419 43.387229 0l102.94234-102.94234c11.972419-11.972419 11.972419-31.41481 0-43.387229C904.531628 175.403617 896.754672 172.436095 888.875387 172.436095zM637.55691 320.198261 297.417408 320.198261c-16.986509 0-30.698511 13.712002-30.698511 30.698511s13.712002 30.698511 30.698511 30.698511L637.55691 381.595283c16.986509 0 30.698511-13.712002 30.698511-30.698511S654.54342 320.198261 637.55691 320.198261zM540.447287 174.380334 297.417408 174.380334c-16.986509 0-30.698511 13.712002-30.698511 30.698511s13.712002 30.698511 30.698511 30.698511l243.029879 0c16.986509 0 30.698511-13.712002 30.698511-30.698511S557.331468 174.380334 540.447287 174.380334z"  horiz-adv-x="1024" />

    
    <glyph glyph-name="318stream" unicode="&#59243;" d="M1354.322581 136.258065c-2.642581 0-4.954839 0.924903-7.432258 1.486452-158.521806 5.020903-192.842323 164.698839-322.890323 164.698839-132.129032 0-132.129032-165.16129-330.322581-165.16129s-198.193548 165.16129-330.322581 165.16129c-130.081032 0-164.401548-159.644903-322.890323-164.698839C37.987097 137.182968 35.674839 136.258065 33.032258 136.258065c-18.266839 0-33.032258 14.798452-33.032258 33.032258s14.765419 33.032258 33.032258 33.032258c132.129032 0 165.16129 165.16129 330.322581 165.16129s198.193548-165.16129 330.322581-165.16129 165.16129 165.16129 330.322581 165.16129 198.193548-165.16129 330.322581-165.16129c18.233806 0 33.032258-14.765419 33.032258-33.032258S1372.556387 136.258065 1354.322581 136.258065zM1354.322581 400.516129c-2.642581 0-4.954839 0.924903-7.432258 1.486452C1188.368516 407.056516 1154.048 566.701419 1024 566.701419c-132.129032 0-132.129032-165.16129-330.322581-165.16129s-198.193548 165.16129-330.322581 165.16129c-130.081032 0-164.401548-159.644903-322.890323-164.698839C37.987097 401.441032 35.674839 400.516129 33.032258 400.516129c-18.266839 0-33.032258 14.798452-33.032258 33.032258 0 18.233806 14.765419 33.032258 33.032258 33.032258 132.129032 0 165.16129 165.16129 330.322581 165.16129s198.193548-165.16129 330.322581-165.16129 165.16129 165.16129 330.322581 165.16129 198.193548-165.16129 330.322581-165.16129c18.233806 0 33.032258-14.765419 33.032258-33.032258C1387.354839 415.314581 1372.556387 400.516129 1354.322581 400.516129zM1354.322581 664.774194c-2.642581 0-4.954839 0.924903-7.432258 1.486452C1188.368516 671.314581 1154.048 830.959484 1024 830.959484c-132.129032 0-132.129032-165.16129-330.322581-165.16129s-198.193548 165.16129-330.322581 165.16129c-130.081032 0-164.401548-159.644903-322.890323-164.698839C37.987097 665.699097 35.674839 664.774194 33.032258 664.774194 14.765419 664.774194 0 679.572645 0 697.806452c0 18.266839 14.765419 33.032258 33.032258 33.032258 132.129032 0 165.16129 165.16129 330.322581 165.16129s198.193548-165.16129 330.322581-165.16129 165.16129 165.16129 330.322581 165.16129 198.193548-165.16129 330.322581-165.16129c18.233806 0 33.032258-14.765419 33.032258-33.032258C1387.354839 679.572645 1372.556387 664.774194 1354.322581 664.774194zM33.032258-61.935484c132.129032 0 165.16129 165.16129 330.322581 165.16129s198.193548-165.16129 330.322581-165.16129 165.16129 165.16129 330.322581 165.16129 198.193548-165.16129 330.322581-165.16129c18.233806 0 33.032258-14.798452 33.032258-33.032258 0-18.266839-14.798452-33.032258-33.032258-33.032258-2.642581 0-4.954839 0.891871-7.432258 1.486452-158.521806 5.020903-192.842323 164.698839-322.890323 164.698839-132.129032 0-132.129032-165.16129-330.322581-165.16129s-198.193548 165.16129-330.322581 165.16129c-130.081032 0-164.401548-159.644903-322.890323-164.698839C37.987097-127.075097 35.674839-128 33.032258-128c-18.266839 0-33.032258 14.765419-33.032258 33.032258C0-76.733935 14.765419-61.935484 33.032258-61.935484z"  horiz-adv-x="1388" />

    
    <glyph glyph-name="topiconresourcelist" unicode="&#59163;" d="M439.183 819.576v-58.964h-200.461v-816.007h755.154v816.007h-200.461v58.964h-354.226zM491.541 709.197v58.964h249.988v-65.092h-249.988v6.132zM793.423 651.183v58.016h148.579v-712.237h-651.385v712.237h148.579v-58.016h354.226zM542.954 453.55h294.8v51.888h-294.8zM542.954 293.653h294.8v51.888h-294.8zM542.954 134.228h294.8v51.888h-294.8zM426.329 524.76c-24.996 0-45.284-20.277-45.284-45.284s20.277-45.284 45.284-45.284c24.996 0 45.284 20.277 45.284 45.284 0.478 24.996-19.812 45.284-45.284 45.284zM426.329 365.336c-24.996 0-45.284-20.277-45.284-45.284s20.277-45.284 45.284-45.284c24.996 0 45.284 20.277 45.284 45.284 0.478 24.996-19.812 45.284-45.284 45.284zM426.329 205.909c-24.996 0-45.284-20.277-45.284-45.284s20.277-45.284 45.284-45.284c24.996 0 45.284 20.277 45.284 45.284 0.478 24.996-19.812 45.284-45.284 45.284z"  horiz-adv-x="1298" />

    
    <glyph glyph-name="infor" unicode="&#58913;" d="M528.707-122.657h-143.932c-89.662-2.703-107.123 27.855-107.959 94.989v823.503c0.29 70.19 22.663 97.475 107.959 98.287h476.657c72.141-0.267 111.43-10.089 109.052-98.287v-823.502c0.195-60.947-29.635-94.418-109.052-94.989h-333.309l-15.979-39.332 391.073 0.045c58.354 0 105.705 47.953 105.705 107.074v877.9c0 59.15-47.351 107.103-105.705 107.103h-560.228c-58.353 0-105.705-47.953-105.705-107.103v-877.901c0-59.122 47.351-107.074 105.705-107.074h169.565zM159.487-122.657h-2.052c-89.662-2.703-103.089 27.855-103.923 94.989v166.491c0.29 70.19 18.627 98.566 103.923 99.378h-28.653c31.183-0.114 108.551-0.464 108.551-0.464s1.85-48.841 0.5-98.914v-166.491c0.195-60.947-29.635-94.418-109.052-94.989h30.123l-15.979-39.332 27.643 0.045c58.354 0 105.705 47.953 105.705 107.074v220.89c0 59.149-0.741 107.459-0.932 108.194h-155.654c-58.353 0-105.705-47.953-105.705-107.103v-221.981c0-59.122 47.351-107.074 105.705-107.074h23.649zM256.706-116.781c0 0-35.379-45.209-84.036-45.209h175.213c0 0-55.251-5.087-91.177 45.209zM353.705 676.298h324.544v-33.818h-324.544v33.818zM353.705 512.59h543.901v-33.818h-543.901v33.818zM353.705 342.334h543.901v-33.818h-543.901v33.818zM353.705 153.525h543.901v-33.818h-543.901v33.818z"  horiz-adv-x="1024" />

    
    <glyph glyph-name="log" unicode="&#58889;" d="M820.402 754.327h-571.916c-52.426 0-95.319-46.468-95.319-98.895v-568.341c0-52.426 42.893-95.319 94.127-95.319h568.341c52.426 0 100.084 42.893 100.084 95.319v571.916c0 52.426-42.893 95.319-95.319 95.319v0zM868.063 87.092c0-26.214-26.214-47.66-52.426-47.66h-568.341c-26.214 0-47.66 21.446-47.66 47.66v568.341c1.191 26.214 22.64 51.235 48.852 51.235h571.916c26.214 0 47.66-21.446 47.66-47.66v-571.916zM725.083 277.73h-381.277c-13.107 0-23.828-10.723-23.828-23.828 0-13.107 10.723-23.828 23.828-23.828h381.277c13.107 0 23.828 10.723 23.828 23.828 0 13.107-10.723 23.828-23.828 23.828v0zM725.083 420.711h-381.277c-13.107 0-23.828-10.723-23.828-23.828 0-13.107 10.723-23.828 23.828-23.828h381.277c13.107 0 23.828 10.723 23.828 23.828 0 13.107-10.723 23.828-23.828 23.828v0zM725.083 563.691h-381.277c-13.107 0-23.828-10.723-23.828-23.828 0-13.107 10.723-23.828 23.828-23.828h381.277c13.107 0 23.828 10.723 23.828 23.828 0 13.107-10.723 23.828-23.828 23.828v0z"  horiz-adv-x="1024" />

    
    <glyph glyph-name="elastic" unicode="&#58883;" d="M1431.080187 199.575732l20.419177 2.172253 1.303352-41.707255c-53.871871-7.38566-99.923632-11.295715-138.155282-11.295715-50.830717 0-86.890115 14.771319-108.178193 44.313958-21.288078 29.542639-31.714892 75.5944-31.714892 137.720832 0 124.252864 49.527365 186.379296 148.147645 186.379296 47.789563 0 83.41451-13.467968 106.874841-39.969453 23.460331-26.501485 35.190496-68.64319 35.190496-125.556216l-3.041154-40.403903-233.734408 0c0-39.100552 6.951209-68.20874 21.288078-86.890115 14.336869-18.681375 38.666101-28.239287 73.856597-28.239287C1358.961392 195.665677 1395.020789 196.969028 1431.080187 199.575732zM1411.964361 353.371235c0 43.445057-6.951209 74.291048-20.853627 92.103521-13.902418 17.812473-36.493848 26.935936-67.774289 26.935936-31.280441 0-55.175223-9.557913-70.815443-28.239287-15.640221-18.681375-23.894782-49.092915-24.329232-90.80017L1411.964361 353.371235zM1539.258379 155.696224l0 508.30717 53.00297 0 0-508.30717L1539.258379 155.696224zM1926.78829 402.8986l0-174.21468c0-17.812473 43.879508-21.288078 43.879508-21.288078l-2.606703-46.920662c-37.362749 0-68.20874-3.041154-86.890115 14.771319-42.576156-18.681375-84.717862-26.501485-127.294018-26.501485-32.583793 0-57.347476 9.123462-74.291048 27.804837-16.943572 18.246924-25.632584 44.748409-25.632584 79.504455 0 34.321595 8.689011 59.954179 26.067034 76.02885 17.378023 16.074671 44.748409 26.501485 82.111158 29.97709l111.219347 10.426814 0 30.41154c0 23.894782-5.213407 41.272804-15.640221 51.699618-10.426814 10.426814-24.763683 15.640221-42.576156 15.640221l-139.458634 0L1675.675859 517.159101l135.983029 0c39.969453 0 69.077641-9.123462 87.324565-27.804837C1917.664828 471.10734 1926.78829 441.999151 1926.78829 402.8986zM1708.694103 258.66101c0-43.445057 17.812473-65.167586 53.871871-65.167586 32.149342 0 63.864234 5.213407 94.710225 16.074671l16.074671 5.647857 0 116.867204-104.702588-9.992363c-21.288078-1.737802-36.493848-7.82011-46.051761-18.246924C1713.473059 293.417056 1708.694103 278.211286 1708.694103 258.66101zM2134.021213 469.369538c-51.265168 0-77.332202-17.812473-77.332202-53.871871 0-16.509122 6.082308-28.239287 17.812473-35.190496 11.730165-6.951209 38.666101-13.902418 80.807807-21.288078 42.141706-7.38566 71.684345-17.378023 89.062367-30.845991 17.378023-13.033517 26.067034-37.7972 26.067034-74.291048 0-36.493848-11.730165-62.995333-35.190496-79.938905-23.460331-16.943572-57.347476-25.632584-102.530335-25.632584-29.108188 0-126.859567 10.861264-126.859567 10.861264l3.041154 46.051761c56.044124-5.213407 96.882478-9.557913 124.252864-9.557913 27.370386 0 48.224014 4.344506 62.560882 13.033517 14.336869 8.689011 21.722529 23.460331 21.722529 43.879508 0 20.419177-6.082308 34.321595-18.246924 41.707255-12.164616 7.38566-39.100552 14.336869-80.807807 20.853627-41.707255 6.516759-71.249894 16.074671-88.627917 29.108188-17.378023 12.599067-26.067034 36.493848-26.067034 70.815443 0 34.321595 12.164616 59.954179 36.493848 76.463301 24.329232 16.509122 54.740772 24.763683 90.80017 24.763683 28.673738 0 128.59737-7.38566 128.59737-7.38566l0-46.486211C2207.44336 465.893933 2164.432754 469.369538 2134.021213 469.369538zM2527.198982 463.72168l-112.522698 0 0-169.435723c0-40.403903 3.041154-67.339839 8.689011-79.938905 6.082308-12.599067 19.984726-19.115825 42.141706-19.115825l62.995333 4.344506 3.475605-43.879508c-31.714892-5.213407-55.609673-7.82011-72.118795-7.82011-36.928299 0-62.126432 9.123462-76.463301 26.935936-14.336869 17.812473-21.288078 52.134069-21.288078 102.530335L2362.107764 463.72168l-50.396266 0L2311.711498 509.773441l50.396266 0L2362.107764 618.386084l52.568519 0 0-108.178193 112.522698 0L2527.198982 463.72168zM2601.055579 590.146797 2601.055579 651.404328l53.00297 0 0-61.691981L2601.055579 589.712346zM2601.055579 155.696224 2601.055579 509.773441l53.00297 0 0-354.077217L2601.055579 155.696224zM2883.882902 517.159101c15.640221 0 42.141706-3.041154 79.504455-8.689011l16.943572-2.172253-2.172253-43.010607c-37.7972 4.344506-65.602036 6.516759-83.41451 6.516759-39.969453 0-67.339839-9.557913-81.676708-28.673738-14.336869-19.115825-21.722529-54.740772-21.722529-106.44039 0-51.699618 6.516759-87.759016 19.984726-108.178193 13.467968-20.419177 41.272804-30.41154 83.848961-30.41154l83.41451 6.516759 2.172253-43.879508c-43.879508-6.516759-76.897751-9.992363-98.62028-9.992363-55.175223 0-93.406873 14.336869-114.260501 42.576156-20.853627 28.239287-31.714892 76.02885-31.714892 143.368689 0 67.339839 11.295715 114.694951 33.887145 141.630887C2793.517183 503.256682 2831.314383 517.159101 2883.882902 517.159101zM1027.910055 359.453543c0 86.021213-53.43742 161.615613-133.810776 190.723801 3.475605 18.246924 5.213407 36.493848 5.213407 55.175223C899.312686 765.664828 768.977514 896 609.099703 896 515.258379 896 428.368265 851.251591 373.627493 775.657191c-26.935936 20.853627-59.954179 32.149342-94.275774 32.149342-85.152312 0-154.229953-69.077641-154.229953-154.229953 0-18.681375 3.475605-36.928299 9.557913-53.871871C54.740772 571.030972 0 494.13322 0 408.546457c0-86.455664 53.871871-162.050064 134.245227-191.158252-3.475605-17.812473-5.213407-36.493848-5.213407-55.175223 0-159.877811 129.900721-289.778532 289.778532-289.778532 93.841324 0 180.731438 45.18286 235.03776 120.777259 26.935936-21.288078 59.954179-33.018244 94.275774-33.018244 85.152312 0 154.229953 69.077641 154.229953 154.229953 0 18.681375-3.475605 36.928299-9.557913 53.871871C972.734832 196.969028 1027.910055 273.86678 1027.910055 359.453543zM397.956725 744.811201c47.355112 69.077641 125.556216 110.350445 208.970725 110.350445 139.893084 0 253.719134-113.82605 253.719134-253.719134 0-16.943572-1.737802-33.452694-4.778956-49.961816l-226.783199-198.978362L404.039033 455.032669 360.159525 548.873992 397.956725 744.811201zM284.130675 770.009334c26.935936 0 52.568519-8.689011 73.856597-24.763683l-33.887145-175.083581-154.229953 36.493848c-4.778956 13.467968-7.38566 27.370386-7.38566 42.141706C162.484514 715.268562 216.790836 770.009334 284.130675 770.009334zM39.535002 408.112007c0 72.553246 47.789563 138.589733 116.867204 161.615613L325.83793 529.323717l39.535002-84.717862-216.356385-195.502758C83.41451 274.30123 39.535002 337.296563 39.535002 408.112007zM630.822232 23.188799c-47.355112-69.946542-125.990666-111.219347-210.274077-111.219347-140.327535 0-254.588036 114.260501-254.588036 254.153585 0 17.378023 1.737802 34.321595 4.778956 50.830717l221.135342 199.847263 225.914298-102.964786 49.961816-95.579126L630.822232 23.188799zM743.779381-1.574883c-26.501485 0-52.134069 8.689011-73.422147 25.198133l33.452694 174.64913 153.795503-36.059398c4.778956-13.467968 7.38566-27.370386 7.38566-42.141706C865.425541 52.731438 810.684769-1.574883 743.779381-1.574883zM871.073398 198.706831l-169.435723 39.535002-45.18286 86.021213 221.569792 194.199406c65.602036-24.763683 109.481544-87.759016 109.481544-158.574459C987.940602 287.334748 940.151039 221.298261 871.073398 198.706831z"  horiz-adv-x="2982" />

    
    <glyph glyph-name="desktop1" unicode="&#60800;" d="M870 747 153.2 747c-31.5 0-57.2-25.7-57.2-57.2L96 229c0-31.5 25.7-57.2 57.2-57.2L480 171.8l0-89.9L332.7 81.9c-17.4 0-31.6-14.2-31.6-31.6 0-17.4 14.2-31.6 31.6-31.6l358.4 0c17.4 0 31.6 14.2 31.6 31.6 0 17.4-14.2 31.6-31.6 31.6L543.2 81.9l0 89.9L870 171.8c31.5 0 57.2 25.7 57.2 57.2L927.2 689.8C927.2 721.3 901.5 747 870 747zM864 683.8 864 235 159.2 235 159.2 683.8 864 683.8z"  horiz-adv-x="1024" />

    
    <glyph glyph-name="turnright" unicode="&#58932;" d="M52.51072 317.59872l674.75456 0-255.23712-265.77408 180.41856 0L971.48928 384l-319.04256 332.17536L472.02816 716.17536l255.23712-265.74336L52.51072 450.432 52.51072 317.59872z"  horiz-adv-x="1024" />

    
    <glyph glyph-name="update" unicode="&#59269;" d="M714.965333 240.64c-45.312-62.464-119.338667-103.253333-202.965333-103.253333-137.045333 0-248.789333 109.824-249.514667 245.248l29.312 0L343.893333 382.634667 214.229333 510.122667l-129.408-127.488 68.437333 0 1.877333 0 11.306667 0C167.253333 194.645333 321.621333 42.581333 512 42.581333c110.336 0 208.426667 51.029333 271.744 130.432l-28.288 27.776L714.965333 240.64zM885.674667 382.208 885.674667 382.208l-27.989333-0.042667 0 0.042667c0 0.597333 0 1.237333 0 1.792C857.685333 572.544 702.976 725.333333 512 725.333333 400.896 725.333333 302.08 673.493333 238.848 592.938667l29.397333-29.013333L307.626667 525.269333c45.226667 63.573333 119.936 105.258667 204.373333 105.258667 137.685333 0 249.685333-110.592 249.685333-246.528 0-0.554667-0.042667-1.194667-0.042667-1.792l0-0.042667-30.378667 0-0.042667 0.042667-51.2 0 129.664-127.658667 129.408 127.658667L885.674667 382.208z"  horiz-adv-x="1024" />

    
    <glyph glyph-name="grafana" unicode="&#59038;" d="M955.843289 409.885206c-1.727888-11.583251-24.606408-58.012247-24.606408-41.021346 0 82.458666-35.357713 156.885851-91.930053 209.362457-25.630342 27.998189-57.084307 51.036699-92.186037 67.323645-41.693303 22.622537-89.594204 35.485705-142.966752 35.613696-83.258614-7.231532-234.544828-9.983354-303.212386-210.130407C288.750441 439.323301 281.934882 404.893528 281.934882 368.831861c0-1.439907 0.127992-2.751822 0.127992-4.223727 0-1.279917-0.127992-2.719824-0.127992-4.031739 0-157.013843 123.288025-308.652034 295.820864-295.916858 59.708138 7.775497 98.361637 23.294493 156.245893 82.202683 25.118375 22.334555 49.180819 76.795032 49.180819 115.064557 0 41.021346-5.919617 96.569753-41.021346 131.511493-29.854069 29.854069-52.860581 57.468283-131.479495 57.468283-90.90612 0-123.256027-81.946699-123.256027-123.256027 0-59.836129 42.877226-107.545043 90.330157-106.745095 55.132434 0.735952 46.428997 8.127474 65.787744 8.127474 18.526802 0 19.966708-32.861874-8.19147-41.021346-29.438096-8.543447-83.4826-16.798913-131.479495 8.159472-57.66027 29.982061-92.825995 130.807538-68.123593 203.698823 54.972444 132.439433 138.647031 136.631162 220.145759 141.494847 147.31847-7.487516 236.464704-148.726379 234.224849-263.022986-0.15999-9.471387-1.471905-21.406615-3.423779-34.429773 30.30204-31.549959 52.732589-79.034887 57.372289-96.92173 1.951874-7.487516-21.18263-44.957092-105.209194-49.020829-25.406357-38.429514-53.436543-68.539566-85.498469-91.162103 2.207857-49.596792-42.077278-117.560395-58.940187-134.263315-5.375652-5.40765-89.81819 31.325974-119.80025 78.106947-10.911294-0.543965-22.078572-1.055932-33.789814-1.055932-42.877226 0-84.186554 7.26353-122.90405 20.25469 0.447971-4.607702-0.607961-8.799431-3.55177-12.223209-32.797878-39.197464-124.59994-47.61292-150.006296-44.445125C256.016559-85.79473 228.274354 23.126224 259.24835 70.96313c-24.062443 24.990383-44.957092 53.276554-62.267972 83.930571-64.091854-4.47971-181.460262 74.715167-178.004485 107.033076 1.375911 12.895166 54.012506 115.096555 123.320023 131.511493 0.15999 0 0.447971 0 0.639959 0 2.239855 50.23675 10.175342 94.169908 22.814524 132.695416-46.396999 43.389193-53.052568 156.501876-48.124887 187.795852 1.631894 10.399327 137.239122 40.34939 196.211308 0.671957 36.413644 21.95058 75.995084 37.341584 116.120488 47.45293 0 0.383975-0.127992 0.799948-0.063996 1.183923 5.215663 48.124887 74.299194 121.65613 95.99379 132.567425 6.847557 3.55177 86.074432-65.08379 92.410022-118.456337 37.597568-4.351718 74.299194-14.495062 108.856958-29.342102 31.709949 29.182112 74.715167 40.765363 96.281772 37.501574 7.359524-1.08793 34.045798-63.291906 15.742982-108.121006C920.453578 606.224505 970.146364 507.062919 955.843289 409.885206z"  horiz-adv-x="1024" />

    
    <glyph glyph-name="hdfs" unicode="&#59044;" d="M506.538 78.479l-183.999 97.785v291.925l183.999-97.767 194.808 97.767v-291.925l-194.808-97.785zM428.115 175.081c-7.371 0-13.347-5.557-13.347-12.412s5.977-12.412 13.347-12.412 13.328 5.557 13.328 12.412-5.958 12.412-13.328 12.412zM459.279 158.507c-7.371 0-13.328-5.595-13.328-12.412 0-6.855 5.977-12.412 13.328-12.412 7.389 0 13.347 5.557 13.347 12.412 0 6.817-5.958 12.412-13.347 12.412zM490.385 141.952c-7.372 0-13.347-5.557-13.347-12.412s5.977-12.412 13.347-12.412 13.31 5.557 13.31 12.412-5.939 12.412-13.31 12.412zM322.54 515.717v43.46l183.999-97.767 194.808 97.767v-43.441l-194.808-97.767-183.999 97.747zM322.54 591.773l183.999 97.747 194.922-96.945-194.922-98.568-183.999 97.767zM393.421 274.889h-53.294v42.072h-13.571v-102.486h13.571v48.326h53.294v-48.326h13.547v102.486h-13.547v-42.072zM498.133 308.138c-4.128 3.56-9.121 6.007-15.005 7.366-4.178 0.964-10.283 1.458-18.243 1.458h-35.324v-102.486h36.98c6.204 0 11.717 0.569 16.462 1.731 4.771 1.162 8.874 2.867 12.261 5.141s6.476 5.364 9.344 9.319c2.818 3.906 5.167 8.874 6.996 14.931 1.805 6.007 2.694 12.903 2.694 20.715 0 9.097-1.335 17.254-4.004 24.323-2.669 7.094-6.724 12.953-12.162 17.501zM497.637 246.71c-1.779-5.438-4.301-9.739-7.515-12.953-2.3-2.274-5.364-4.054-9.22-5.315-3.806-1.26-9.121-1.878-15.894-1.878h-21.902v78.31h21.531c8.059 0 13.916-0.668 17.575-2.102 5.017-1.953 9.294-5.784 12.83-11.569s5.29-13.991 5.29-24.719c0-7.762-0.891-14.312-2.694-19.776zM533.704 214.451h13.547v46.571h48.128v12.087h-48.128v31.74h55.568v12.087h-69.114v-102.486zM693.192 257.981c-2.843 4.226-7.243 7.713-13.225 10.456-4.103 1.853-11.643 4.029-22.692 6.55-11.001 2.497-17.823 4.919-20.418 7.292-2.694 2.398-4.004 5.413-4.004 9.097 0 4.252 1.879 7.861 5.661 10.877 3.708 2.991 9.714 4.523 17.922 4.523 7.861 0 13.867-1.656 17.872-4.969 4.054-3.312 6.427-8.207 7.094-14.708l13.028 0.989c-0.247 6.007-1.928 11.396-5.068 16.142-3.090 4.771-7.588 8.379-13.373 10.827-5.784 2.472-12.508 3.659-20.122 3.659-6.897 0-13.126-1.162-18.787-3.51s-9.937-5.735-12.878-10.234c-2.892-4.499-4.4-9.344-4.4-14.51 0-4.721 1.211-8.973 3.608-12.78 2.373-3.806 6.032-6.97 10.901-9.541 3.806-2.002 10.383-4.153 19.8-6.427 9.418-2.249 15.499-3.906 18.292-4.993 4.253-1.631 7.342-3.634 9.171-6.031 1.878-2.423 2.843-5.215 2.843-8.43 0-3.164-1.013-6.106-2.942-8.775-1.879-2.669-4.87-4.771-8.825-6.328s-8.503-2.324-13.718-2.324c-5.784 0-11.049 1.013-15.746 3.040-4.647 2.027-8.059 4.673-10.283 7.959-2.225 3.312-3.608 7.515-4.252 12.632l-12.804-1.113c0.198-6.848 2.077-13.002 5.661-18.441 3.535-5.413 8.503-9.492 14.733-12.162 6.279-2.72 14.041-4.079 23.31-4.079 7.342 0 13.916 1.359 19.8 4.028 5.834 2.67 10.332 6.428 13.422 11.247 3.14 4.82 4.672 9.962 4.672 15.425 0 5.537-1.409 10.383-4.252 14.609z"  horiz-adv-x="1024" />

    
    <glyph glyph-name="topic2" unicode="&#58939;" d="M784 848 336 848c-52.944 0-96-43.056-96-96-52.944 0-96-43.056-96-96l0-640c0-52.944 43.056-96 96-96l448 0c52.944 0 96 43.056 96 96 52.944 0 96 43.056 96 96L880 752C880 804.944 836.944 848 784 848zM688-16 240-16c-17.648 0-32 14.352-32 32L208 656c0 17.648 14.352 32 32 32l0-576c0-52.944 43.056-96 96-96l384 0C720-1.648 705.648-16 688-16zM816 112c0-17.648-14.352-32-32-32L336 80c-17.648 0-32 14.352-32 32L304 752c0 17.648 14.352 32 32 32l448 0c17.648 0 32-14.352 32-32L816 112zM688 640 432 640c-17.68 0-32-14.32-32-32 0-17.68 14.32-32 32-32l256 0c17.68 0 32 14.32 32 32C720 625.68 705.68 640 688 640zM688 512 432 512c-17.68 0-32-14.32-32-32 0-17.68 14.32-32 32-32l256 0c17.68 0 32 14.32 32 32C720 497.68 705.68 512 688 512zM496 384l-64 0c-17.68 0-32-14.32-32-32 0-17.68 14.32-32 32-32l64 0c17.68 0 32 14.32 32 32C528 369.68 513.68 384 496 384zM608 346.832m-32 0a2 2 0 1 0 64 0 2 2 0 1 0-64 0Z"  horiz-adv-x="1024" />

    
    <glyph glyph-name="log2" unicode="&#59006;" d="M810.614 703.546h-177.681c-17.21 51.165-65.119 88.376-121.865 88.376s-105.12-37.211-121.4-88.376h-177.681c-13.489 0-24.652-11.163-24.652-24.652v-677.697c0-13.489 11.163-24.652 24.652-24.652h599.091c13.489 0 24.652 11.163 24.652 24.652v677.697c-0.465 13.489-11.628 24.652-25.117 24.652zM511.070 750.524c26.978 0 49.304-21.861 49.304-49.304 0-26.978-21.861-49.304-49.304-49.304s-49.304 21.861-49.304 49.304c0 27.442 22.326 49.304 49.304 49.304zM776.195 45.383c0-5.116-4.185-9.303-9.767-9.303h-510.715c-5.582 0-9.767 4.185-9.767 9.303v589.788c0 5.116 4.185 9.303 9.767 9.303h89.77v-34.419c0-13.489 11.163-24.652 24.652-24.652h282.335c13.489 0 24.652 11.163 24.652 24.652v34.419h89.77c5.582 0 9.767-4.185 9.767-9.303v-589.788zM720.379 441.677c0-5.116-4.651-9.302-10.233-9.302h-286.522c-5.582 0-10.233 4.185-10.233 9.302v37.211c0 5.116 4.651 9.302 10.233 9.302h286.522c5.582 0 10.233-4.185 10.233-9.302v-37.211zM357.576 441.677c0-5.116-4.186-9.302-9.302-9.302h-37.211c-5.116 0-9.302 4.185-9.302 9.302v37.211c0 5.116 4.186 9.302 9.302 9.302h37.211c5.116 0 9.302-4.185 9.302-9.302v-37.211zM720.379 297.485c0-5.116-4.651-9.302-10.233-9.302h-286.522c-5.582 0-10.233 4.186-10.233 9.302v37.21c0 5.116 4.651 9.303 10.233 9.303h286.522c5.582 0 10.233-4.185 10.233-9.303v-37.21zM357.576 297.485c0-5.116-4.186-9.302-9.302-9.302h-37.211c-5.116 0-9.302 4.186-9.302 9.302v37.21c0 5.116 4.186 9.303 9.302 9.303h37.211c5.116 0 9.302-4.185 9.302-9.303v-37.21zM720.379 153.294c0-5.116-4.651-9.303-10.233-9.303h-286.522c-5.582 0-10.233 4.185-10.233 9.303v37.211c0 5.116 4.651 9.303 10.233 9.303h286.522c5.582 0 10.233-4.186 10.233-9.303v-37.211zM357.576 153.294c0-5.116-4.186-9.303-9.302-9.303h-37.211c-5.116 0-9.302 4.185-9.302 9.303v37.211c0 5.116 4.186 9.303 9.302 9.303h37.211c5.116 0 9.302-4.186 9.302-9.303v-37.211z"  horiz-adv-x="1024" />

    
    <glyph glyph-name="icons-" unicode="&#58936;" d="M119.41 409a29.89 29.89 0 0 1 14.46 3.73l116.28 64.1a30 30 0 1 1-29 52.54l-53-29.22A363.66 363.66 0 0 0 862 475.83a30 30 0 1 1 57.88 15.81 423.65 423.65 0 0 1-811.17 19.91L79.08 558a30 30 0 0 1-50.59-32.26l65.6-102.87A30 30 0 0 1 119.41 409zM994.85 266.61l-65.59 102.86a30 30 0 0 1-39.78 10.14l-116.28-64.1a30 30 0 1 1 29-52.54l63.35 34.92A363.6 363.6 0 0 0 152.63 320a30 30 0 1 1-59.2-9.78 423.63 423.63 0 0 1 827.3-39l23.53-36.9a30 30 0 0 1 50.59 32.29z"  horiz-adv-x="1024" />

    
    <glyph glyph-name="topic" unicode="&#59007;" d="M754.211252 431.224543L916.606376 512.268612c7.469971 3.78615 7.572299 14.4283 0.102328 18.21445l-382.708104 197.289097c-5.935045 3.069851-12.893375 3.069851-18.726092 0L132.975717 530.483062c-7.469971-3.888478-7.367643-14.530629 0.102328-18.21445l162.292795-81.044069-162.395123-83.806935c-7.469971-3.888478-7.367643-14.530629 0.102328-18.21445l162.292795-81.044069L132.975717 164.352153c-7.469971-3.888478-7.367643-14.530629 0.102328-18.214449l382.605776-191.047067c5.730389-2.865194 12.484061-2.865194 18.316779 0l382.708104 191.047067c7.469971 3.78615 7.572299 14.4283 0.102328 18.214449L754.211252 248.05676 916.606376 329.100829c7.469971 3.78615 7.572299 14.4283 0.102328 18.21445l-162.497452 83.909264z m-409.620466-24.558809l171.093035-85.444189c5.730389-2.865194 12.484061-2.865194 18.316779 0L705.093634 406.665734l131.491956-67.843709-311.794544-155.641451-311.692215 155.641451 131.491955 67.843709z m180.20026-406.652943L213.098831 155.654242l131.491955 67.843709 171.093035-85.444189c5.730389-2.865194 12.484061-2.865194 18.316779 0L705.093634 223.497951l131.491956-67.843709-311.794544-155.641451z"  horiz-adv-x="1024" />

    
    <glyph glyph-name="hbase1" unicode="&#58884;" d="M185.9584 417.792h18.7392v-36.864h-37.4784v36.864h18.7392z m416.8704 18.0224h55.9104V452.608h-55.9104c-4.5056 0-6.7584 2.048-6.7584 6.0416v26.5216c0 3.9936 2.2528 6.0416 6.7584 6.0416h55.9104v16.896h-55.9104c-6.5536 0-12.1856-2.1504-16.6912-6.5536-4.608-4.4032-6.8608-9.8304-6.8608-16.384v-26.5216c0-6.5536 2.2528-11.9808 6.8608-16.384 4.5056-4.3008 10.1376-6.4512 16.6912-6.4512z m-358.2976 23.552h-28.3648v-23.6544h-16.896v72.3968H269.312c6.2464 0 11.3664-2.56 15.1552-7.68 3.584-4.7104 5.3248-10.24 5.3248-16.6912 0-6.4512-1.7408-11.9808-5.3248-16.5888-3.8912-5.12-8.9088-7.68-15.1552-7.68l-24.7808-0.1024z m-28.3648 16.896H269.312c2.4576 0 3.6864 2.4576 3.6864 7.4752s-1.2288 7.5776-3.6864 7.5776h-53.1456v-15.0528zM185.9584 357.376H47.0016v60.416H10.24v-157.9008h36.7616V320.512h120.2176v-60.7232h37.4784V357.376h-18.7392zM27.136 435.8144H10.24v50.0736c0 6.0416 1.9456 11.3664 5.7344 15.7696 3.7888 4.4032 8.704 6.656 14.6432 6.656h47.8208c6.0416 0 11.0592-2.1504 14.848-6.5536 3.7888-4.4032 5.7344-9.6256 5.7344-15.7696v-50.0736H82.0224v23.04H27.136v-23.1424z m0 39.936h54.8864v10.1376c0 3.6864-1.2288 5.5296-3.6864 5.5296H30.6176c-2.3552 0-3.4816-1.8432-3.4816-5.5296v-10.1376zM785.6128 357.376h-99.0208c-5.12 0-7.68 3.8912-7.68 11.6736 0 7.9872 2.56 11.9808 7.68 11.9808h136.192V417.792h-136.192c-13.1072 0-23.8592-4.8128-32.1536-14.4384-8.3968-9.6256-12.5952-21.0944-12.5952-34.304 0-13.312 4.096-24.576 12.288-33.6896 8.6016-9.8304 19.456-14.7456 32.4608-14.7456h99.0208c5.12 0 7.68-3.9936 7.68-11.9808s-2.56-11.9808-7.68-11.9808h-136.192v-36.7616h136.192c13.1072 0 23.9616 4.9152 32.5632 14.7456 7.9872 9.4208 11.9808 20.7872 11.9808 33.9968 0 13.312-3.9936 24.6784-11.9808 33.9968-8.704 9.8304-19.5584 14.7456-32.5632 14.7456z m59.8016-97.5872h168.0384v36.7616H882.176V320.512h122.9824v36.864H882.176v23.552H1013.76v36.864H845.4144v-158.0032z m91.136 248.4224v-72.3968h77.0048V452.608h-60.1088v10.9568h56.32v16.896h-56.32v10.8544H1013.76v16.896h-77.2096zM819.2 480.4608h-43.3152v27.648h-16.896v-72.3968h16.896v27.8528H819.2v-27.8528h16.9984v72.3968H819.2v-27.648zM417.4848 303.4112c0-11.8784-3.7888-21.9136-11.3664-30.0032-8.192-9.0112-19.2512-13.5168-33.1776-13.5168H219.8528v97.1776h150.2208c5.3248 0 7.9872 3.9936 7.9872 11.9808 0 7.9872-2.6624 11.9808-7.9872 11.9808H219.8528V417.792h150.3232c13.9264 0 24.9856-4.5056 33.0752-13.5168 7.3728-8.192 11.0592-18.2272 11.0592-30.1056 0-14.7456-5.4272-26.2144-16.2816-34.304 13.1072-7.9872 19.456-20.1728 19.456-36.4544z m-36.4544 5.2224c0 7.9872-2.6624 11.9808-7.9872 11.9808H256.8192v-23.9616h116.224c5.3248 0 7.9872 3.9936 7.9872 11.9808z m53.4528 150.2208h-27.4432v-23.04H390.144v50.0736c0 6.0416 1.9456 11.3664 5.7344 15.7696 3.7888 4.4032 8.704 6.656 14.6432 6.656h47.8208c6.144 0 11.0592-2.1504 14.848-6.656 3.7888-4.4032 5.7344-9.6256 5.7344-15.7696v-50.0736h-16.896v23.04h-27.5456z m0 16.896h27.4432v10.1376c0 3.6864-1.2288 5.5296-3.6864 5.5296h-47.8208c-2.3552 0-3.4816-1.8432-3.4816-5.5296v-10.1376h27.5456zM613.376 403.3536c8.2944-9.6256 12.3904-21.0944 12.3904-34.304v-109.1584h-36.7616v50.2784H469.0944v-50.2784h-36.7616V369.0496c0 13.312 4.096 24.7808 12.3904 34.304 8.2944 9.6256 18.944 14.4384 32.0512 14.4384h104.3456c13.2096 0 23.9616-4.8128 32.256-14.4384z m-24.3712-34.304c0 7.9872-2.6624 11.9808-7.9872 11.9808H476.672c-5.12 0-7.68-3.9936-7.68-11.9808v-22.1184h119.9104v22.1184z"  horiz-adv-x="1024" />

    
    <glyph glyph-name="amy-db-oracle" unicode="&#60802;" d="M449.46 366.441h58.803l-31.034 50.635-57.166-91.469h-26.135l69.416 109.436c3.27 4.084 8.17 7.35 13.885 7.35 4.9 0 9.801-3.266 13.068-7.35l70.234-109.436h-26.135l-12.25 20.418h-60.434l-12.251 20.416z m270.323-20.416V440.76h-22.05v-103.718c0-3.268 0.816-5.718 3.266-8.168 1.633-1.633 4.9-3.267 8.167-3.267h100.451l13.067 20.418h-102.9z m-365.873 17.15c21.235 0 39.201 17.15 39.201 39.2 0 21.235-17.966 38.385-39.2 38.385h-96.37v-115.153h22.05v94.736h72.685c10.617 0 18.783-8.166 18.783-17.967 0-10.618-8.167-18.784-18.783-18.784H290.21l66.152-57.984h31.85l-44.1 37.568h9.8v-0.001z m-232.754-37.568c-31.85 0-57.167 26.135-57.167 57.984 0 31.851 25.317 57.169 57.167 57.169h66.969c31.849 0 57.166-25.317 57.166-57.17 0-31.849-25.317-57.983-57.166-57.983h-66.969z m65.334 20.418c20.418 0 37.568 17.15 37.568 37.567 0 20.418-17.15 36.75-37.568 36.75h-63.7c-20.417 0-37.567-16.333-37.567-36.75 0-20.416 17.15-37.567 37.568-37.567h63.7z m419.774-20.418c-31.85 0-57.168 26.135-57.168 57.984 0 31.851 25.319 57.169 57.168 57.169h79.218l-13.066-20.417h-64.519c-20.416 0-37.567-16.334-37.567-36.751 0-20.416 17.15-37.567 37.567-37.567h79.218l-12.249-20.418h-68.602z m270.322 20.418c-17.151 0-31.034 11.434-35.934 26.95h94.734l13.065 20.416H840.652c4.9 15.517 18.783 26.952 35.934 26.952h65.336l13.065 20.417h-80.035c-31.033 0-57.168-25.317-57.168-57.17 0-31.849 26.134-57.983 57.168-57.983h68.602l13.066 20.418h-80.034z"  horiz-adv-x="1024" />

    
    <glyph glyph-name="topic3" unicode="&#59069;" d="M309.040519 432.52211c0-10.510378 8.361435-19.053961 18.712177-19.053961h331.180771c10.383488 0 18.74697 8.543583 18.74697 19.053961v19.036565c0 10.528797-8.362458 19.057031-18.74697 19.057032H327.752696c-10.350742 0-18.712177-8.528234-18.712177-19.057032v-19.036565z m18.712177 120.664174h331.180771c10.383488 0 18.74697 8.513908 18.74697 19.037588v19.036565c0 10.525728-8.362458 19.058055-18.74697 19.058055H327.752696c-10.350742 0-18.712177-8.532327-18.712177-19.058055v-19.036565c0-10.522658 8.361435-19.037589 18.712177-19.037588z m-18.712177-260.367983c0-10.505261 8.361435-19.041682 18.712177-19.041682h271.170002c10.351766 0 18.782785 8.535397 18.782786 19.041682v19.056008c0 10.525728-8.432043 19.053961-18.782786 19.053962H327.752696c-10.350742 0-18.712177-8.528234-18.712177-19.053962v-19.056008z m487.363903 476.263078H196.557678c-13.81361 0-25.02086-11.380188-25.02086-25.40153V45.516916c0-14.022365 11.206226-25.387203 25.02086-25.387204h316.098261v63.448054H254.958786c-11.582803 0-20.907169 9.555633-20.907169 21.311375V684.257481c0 11.773138 9.324366 21.312398 20.907169 21.312399h483.040435c11.55108 0 20.907169-9.540284 20.907168-21.312399v-447.769116H618.73186c-13.81361 0-14.055111-2.628874-14.055111-16.632819v-199.725834h70.400397l146.207943 149.789515h0.136099V743.679849c0 14.021342-11.207249 25.40153-25.016766 25.40153zM652.798746 95.028563v49.910736c0 11.773138 12.750395 28.121478 24.333199 28.121478h60.629868l-84.963067-78.032214z"  horiz-adv-x="1024" />

    
    <glyph glyph-name="yincang" unicode="&#59031;" d="M512 532.48c-8.533 0-15.36 0-22.187-1.707L650.24 370.347c1.707 6.826 1.707 15.36 1.707 22.186 0 78.507-61.44 139.947-139.947 139.947z m0 209.92c-69.973 0-136.533-13.653-197.973-37.547L414.72 604.16c29.013 13.653 61.44 20.48 97.28 20.48 129.707 0 232.107-102.4 232.107-233.813 0-34.134-6.827-68.267-20.48-97.28L855.04 162.133c75.093 59.734 133.12 138.24 167.253 228.694C945.493 597.333 744.107 742.4 512 742.4zM97.28 662.187l56.32-56.32C85.333 549.547 32.427 476.16 0 390.827c78.507-204.8 279.893-349.867 512-349.867 61.44 0 121.173 10.24 175.787 29.013l71.68-71.68 71.68 71.68-662.187 665.6-71.68-73.386z m194.56-194.56l80.213-80.214c1.707-75.093 59.734-133.12 134.827-134.826l80.213-80.214c-23.893-8.533-49.493-11.946-76.8-11.946-129.706 0-232.106 102.4-232.106 233.813 1.706 23.893 5.12 49.493 13.653 73.387z"  horiz-adv-x="1024" />

    
    <glyph glyph-name="baiduKafka" unicode="&#59240;" d="M736 192c-32 0-64-12.8-89.6-25.6L492.8 320c6.4 19.2 12.8 38.4 12.8 64s-6.4 44.8-12.8 64l160 160c19.2-19.2 51.2-32 83.2-32C825.6 576 896 646.4 896 736S825.6 896 736 896 576 825.6 576 736c0-32 12.8-64 25.6-89.6L460.8 505.6c-32 38.4-70.4 64-115.2 70.4V646.4c57.6 12.8 96 64 96 121.6 0 70.4-57.6 128-128 128s-128-57.6-128-128c0-57.6 38.4-108.8 96-121.6V576c-96-19.2-166.4-96-166.4-192s70.4-172.8 160-185.6V128c-57.6-12.8-96-64-96-121.6 0-70.4 57.6-128 128-128s128 57.6 128 128c0 57.6-38.4 108.8-96 121.6v70.4c44.8 6.4 89.6 32 115.2 70.4l147.2-147.2c-12.8-25.6-25.6-57.6-25.6-89.6 0-89.6 70.4-160 160-160s160 70.4 160 160-70.4 160-160 160z m0 640c51.2 0 96-44.8 96-96S787.2 640 736 640 640 684.8 640 736 684.8 832 736 832zM243.2 768c0 38.4 25.6 64 64 64s64-25.6 64-64-25.6-64-64-64-64 25.6-64 64z m128-768c0-38.4-25.6-64-64-64s-64 25.6-64 64 25.6 64 64 64 64-25.6 64-64z m-64 256c-70.4 0-128 57.6-128 128s57.6 128 128 128 128-57.6 128-128-57.6-128-128-128z m428.8-320c-51.2 0-96 44.8-96 96s44.8 96 96 96 96-44.8 96-96-44.8-96-96-96z"  horiz-adv-x="1024" />

    
    <glyph glyph-name="zeppelin_logo" unicode="&#58885;" d="M1166.48318 892.555352C1049.991437 882.221407 916.276453 844.956575 836.110092 801.428746c-34.133333-18.788991-117.118043-74.216514-152.503976-102.08685-156.261774-122.75474-281.208563-230.791437-358.243425-309.392049-60.75107-62.00367-88.308257-102.71315-108.976147-161.585321-35.385933-101.46055-21.29419-189.455657 40.396331-249.893578 40.08318-39.456881 82.67156-62.00367 164.403669-87.055657 75.782263-23.486239 145.614679-25.051988 307.51315-6.889297 29.749235 3.444648 55.427523 6.262997 56.680123 6.262997 1.565749 0 1.878899 8.455046 1.252599 18.475841l-1.252599 18.788991 13.465443 3.444648c98.329052 25.991437 152.190826 46.346177 222.336391 84.863609 23.173089 12.525994 71.398165 21.29419 132.775536 23.799388 39.143731 1.565749 50.103976 0.93945 65.761467-3.444648 19.102141-5.636697 39.143731-21.607339 39.143731-31.314985 0-2.818349 0.31315-5.010398 0.93945-5.010398 3.131498 0 58.872171 23.799388 87.681957 37.264832 43.214679 20.04159 78.913761 41.96208 110.541896 67.327217 85.176758 68.579817 171.606116 195.405505 210.436697 309.078899 19.72844 56.680122 23.799388 81.73211 23.799389 137.472783 0 67.953517-9.707645 107.410398-36.638532 147.806728-16.596942 25.678287-66.074618 74.529664-98.329052 97.389602-62.629969 44.467278-144.675229 77.974312-224.841591 91.752906-34.446483 5.949847-123.38104 8.141896-165.969419 4.070948zM1108.550459 636.085627l10.960244-2.192049-10.960244-1.878899c-5.949847-0.93945-33.820183-4.697248-61.69052-8.455046-124.946789-15.970642-198.850153-36.638532-314.715596-88.621407-128.704587-57.932722-251.772477-126.825688-398.639756-222.962691-56.053823-36.638532-63.256269-38.517431-30.688685-7.828746 85.176758 80.166361 188.203058 148.433028 331.312538 218.891743 132.149235 65.448318 201.355352 90.187156 299.058104 107.097248 61.37737 10.333945 141.230581 13.152294 175.363915 5.949847z m-65.761468-199.163303c-270.248318-104.592049-511.06055-206.052599-674.837921-284.653211C303.755352 121.267278 272.440367 106.862385 272.440367 108.428135c0 2.505199 76.408563 52.609174 112.733945 73.590214 51.043425 29.436086 85.176758 46.346177 198.850153 98.642201 155.948624 71.711315 206.678899 91.752905 341.333333 134.967585 51.982875 16.596942 178.495413 50.730275 189.455658 51.043425 2.505199 0-29.749235-13.152294-72.024465-29.749236z m123.694189-144.04893c-19.72844-17.849541-86.742508-66.387768-129.957186-93.631804-99.894801-63.256269-307.51315-146.240979-465.340673-186.011009-34.446483-8.768196-148.746177-29.122936-150.938226-27.244037-0.31315 0.6263 25.051988 9.707645 56.366972 20.66789 155.948624 53.548624 344.151682 123.69419 444.672783 165.969419 51.043425 21.607339 116.491743 54.801223 193.526606 98.329052 35.385933 19.72844 64.822018 36.012232 65.761468 36.012233 0.93945 0-5.323547-6.262997-14.091744-14.091744z m125.573089-100.5211c-12.839144-24.425688-52.922324-63.256269-93.631804-90.500306-23.486239-15.970642-105.218349-59.185321-107.410398-56.993272-0.6263 0.93945 18.162691 14.718043 41.96208 30.688685 53.235474 36.325382 111.168196 80.792661 139.977981 107.410397 12.212844 11.273394 22.233639 19.72844 22.859939 19.415291 0.6263-0.6263-0.93945-5.010398-3.757798-10.020795zM374.840367 539.948624c-6.576147-6.262997-15.031193-18.475841-19.415291-27.244037-8.455046-17.536391-18.788991-72.650765-12.839143-68.266667 1.878899 1.565749 23.173089 18.788991 47.285627 38.204282 24.112538 19.72844 44.467278 36.012232 45.093578 36.638532 0.6263 0.31315-1.252599 4.697248-4.384098 9.081346-17.536391 26.617737-36.951682 30.688685-55.740673 11.586544zM109.602446 16.36208C19.72844-28.418349-8.455046-46.58104 4.384098-51.591437c7.515596-2.818349 26.304587 0.6263 71.711315 13.152293 22.233639 6.262997 59.185321 15.344343 82.671559 20.04159 23.173089 4.697248 42.588379 9.394495 43.527829 10.020796 0.6263 0.93945-4.697248 14.404893-11.899694 30.062385l-13.465443 28.496636L109.602446 16.36208zM1089.761468 16.04893c-43.840979-8.768196-56.680122-13.465443-95.197554-35.699083-38.517431-22.546789-65.761468-33.507034-124.007339-50.417125-62.629969-18.162691-63.569419-18.788991-64.822018-21.92049-0.31315-1.565749 1.565749-6.262997 4.697247-10.020795 5.323547-7.202446 5.636697-7.202446 127.451988-9.081345 121.815291-1.878899 253.025076 1.878899 268.682569 7.828746 6.889297 2.505199 8.768196 7.828746 17.849541 46.033027 5.636697 23.799388 11.899694 45.719878 13.778593 48.851377 4.070948 6.889297 0.6263 13.152294-11.899694 22.546789-7.828746 5.949847-13.778593 6.576147-57.619572 7.202446-37.577982 0.31315-56.053823-0.6263-78.913761-5.323547z m140.291131-25.678288c1.252599-7.202446-14.091743-10.960245-61.06422-15.031192-37.264832-3.131498-163.15107-4.384098-160.332722-1.8789 2.192049 2.192049 92.066055 16.910092 121.815291 20.354741 14.718043 1.565749 42.901529 2.505199 62.629969 2.192048 31.001835-0.31315 36.012232-0.93945 36.951682-5.636697zM1193.100917-56.914985c11.899694-5.949847 11.586544-13.465443-0.626299-15.970642-5.636697-0.93945-58.245872-2.505199-116.804893-3.444648-97.702752-1.252599-105.218349-0.93945-90.813456 3.131498 15.031193 4.384098 84.237309 15.970642 109.602447 18.162691 33.507034 3.131498 91.126606 1.878899 98.642201-1.878899z"  horiz-adv-x="1694" />

    
    <glyph glyph-name="spark1" unicode="&#58880;" d="M829.6 169.516l178.193-49.851-106.357 209.391 161.405 197.787-241.641-57.842-118.489 195.922-47.583-244.434-240.705-82.101 177.261-76.503-120.35-81.168-142.746 60.642s-78.369 35.452-78.369 97.027 80.235 83.033 80.235 83.033l237.906 74.014 39.809 231.373s18.659 92.054 82.101 92.054 89.565-73.393 121.909-121.909l65.929-110.711 236.352 62.198s194.053 41.050 78.369-124.391l-167.935-196.546 99.513-194.053s77.125-157.986-104.493-136.833l-171.663 54.735-18.659 118.179z"  horiz-adv-x="1448" />

    
    <glyph glyph-name="job" unicode="&#59555;" d="M782.29959111 695.07754667h-39.61287111c0 2.33016889 0 4.07779555-0.58254222 6.40796444-16.31118222 62.33201778-56.50659555 114.17827555-112.43064889 146.80064-55.92405333 32.62236445-121.16878222 41.36049778-183.5008 24.46677334-83.30353778-22.13660445-149.13080889-87.96387555-171.26741334-171.26741334-0.58254222-2.33016889-0.58254222-4.07779555-0.58254222-6.40796444h-39.03032888c-119.42115555 0-216.70570667-96.70200889-216.70570667-216.70570667v-337.29194667c0-119.42115555 96.70200889-216.70570667 216.70570667-216.70570666h547.00714666c119.42115555 0 216.70570667 96.70200889 216.70570667 216.70570666V478.37184c0 119.42115555-97.28455111 216.70570667-216.70570667 216.70570667zM458.98865778 825.56700445c50.09863111 12.81592889 101.36234667 5.82542222 145.63555555-19.80643556 42.52558222-24.46677333 73.40032-64.07964445 87.96387556-110.68302222H323.83886222c19.80643555 64.07964445 71.07015111 113.59573333 135.14979556 130.48945778zM68.10282667 478.37184C68.10282667 570.99605333 143.25077333 646.144 235.29244445 646.144h547.00714666c92.04167111 0 167.18961778-75.14794667 167.18961778-167.18961778v-61.74947555H68.10282667V478.37184z m881.38638222-337.29194667c0-92.04167111-75.14794667-167.18961778-167.18961778-167.18961778H235.29244445c-92.04167111 0-167.18961778 75.14794667-167.18961778 167.18961778v212.62791112h881.38638222v-212.62791112z"  horiz-adv-x="1024" />

    
    <glyph glyph-name="bangzhu" unicode="&#58897;" d="M515 170.2c-10.8 0-19.5 8.7-19.5 19.5v19.5c0 10.8 8.7 19.5 19.5 19.5s19.5-8.7 19.5-19.5v-19.5c0-10.8-8.7-19.5-19.5-19.5z m0 97.3c-0.6 0-1.3 0-1.9 0.1-10.7 1-18.5 10.5-17.5 21.1 0.2 2.1 5.2 52.1 39.7 89.3 15.7 16.9 33.7 29.2 49.5 40.1 32.2 22 49.1 35 49.1 65.9 0 64.4-53.3 116.7-118.9 116.7-65.6 0-118.9-52.4-118.9-116.7 0-10.8-8.7-19.5-19.5-19.5s-19.5 8.7-19.5 19.5c0 85.8 70.8 155.7 157.8 155.7 87 0 157.8-69.8 157.8-155.7 0-52.9-35.1-76.9-66-98-14.8-10.1-30.2-20.6-42.9-34.4-25.3-27.3-29.5-66.1-29.5-66.5-0.9-10.1-9.4-17.6-19.3-17.6zM515 792.9c214.6 0 389.2-174.6 389.2-389.2S729.6 14.5 515 14.5c-45.7 0-91.3 8.3-135.4 24.7-4.4 1.6-9 2.4-13.6 2.4-4.5 0-9-0.8-13.3-2.3L236-3.1l18.6 92.8c2.6 12.9-1.6 26.3-11 35.5-75.9 74-117.7 172.9-117.7 278.5 0 214.6 174.6 389.2 389.1 389.2m0 38.9c-236.4 0-428-191.7-428-428.1 0-120.2 49.7-228.6 129.4-306.4l-32.1-160.6L366 2.8c46.5-17.3 96.5-27.2 149-27.2 236.4 0 428.1 191.7 428.1 428.1 0 236.4-191.6 428.1-428.1 428.1z"  horiz-adv-x="1024" />

    
    <glyph glyph-name="selected" unicode="&#59012;" d="M398.222222 93.866667L130.844444 361.244444l79.644445 85.333334L398.222222 258.844444l415.288889 415.288889 79.644445-85.333333z"  horiz-adv-x="1024" />

    
    <glyph glyph-name="ic_Heatsink" unicode="&#58902;" d="M898.71874973 609.00000027H849.50000001v-450.00000054h49.21874972c11.24999973 0 21.09375001-9.84375027 21.09375-21.09375s-9.84375027-21.09375001-21.09375-21.09375H849.50000001v-28.12499973c0-46.40625001-37.96875001-84.375-84.37500001-84.375h-28.12499973c-25.3125 0-47.81250027 11.24999973-63.28125 29.53125001-15.46874973-18.28125027-37.96875001-29.53125001-63.28125-29.53125001h-28.12500054c-25.3125 0-47.81250027 11.24999973-63.28125 29.53125001-15.46874973-18.28125027-37.96875001-29.53125001-63.28125-29.53125001h-28.12499973c-25.3125 0-47.81250027 11.24999973-63.28124999 29.53125001-15.46874973-18.28125027-37.96875001-29.53125001-63.28125001-29.53125001h-28.12499973c-46.40625001 0-84.375 37.96875001-84.375 84.375v28.12499973H139.34374973c-11.24999973 0-21.09375001 9.84375027-21.09375 21.09375S128.09374999 158.99999973 139.34374973 158.99999973H188.56250027V609.00000027H174.49999999c-15.46874973 0-28.12499973-12.65625001-28.12499972-28.12500054v-42.1875h-1.40625026c1.40625027-2.81249973 1.40625027-4.21875001 1.40625026-7.03124974 0-11.24999973-9.84375027-21.09375001-21.09375-21.09374999S104.18750027 520.40625027 104.18750027 531.65625001c0 2.81249973 0 4.21875001 1.40624946 7.03124972H104.18750027v56.25000027c0 30.93750027 25.3125 56.25000027 56.24999946 56.25000027h28.12500054V679.3125c0 46.40625001 37.96875001 84.375 84.375 84.375h28.12499973c25.3125 0 47.81250027-11.24999973 63.28124999-29.53125001C379.81249973 752.43750027 402.3125 763.6875 427.625 763.6875h28.12499973c25.3125 0 47.81250027-11.24999973 63.28125-29.53125001C534.50000027 752.43750027 556.99999973 763.6875 582.31249973 763.6875h28.12500054c25.3125 0 47.81250027-11.24999973 63.28125-29.53125001C689.1875 752.43750027 711.68750027 763.6875 737.00000027 763.6875h28.12499973c46.40625001 0 84.375-37.96875001 84.37499999-84.375v-28.12499973h49.21874974c11.24999973 0 21.09375001-9.84375027 21.09375-21.09375s-9.84375027-21.09375001-21.09375-21.09375zM343.25 665.24999973c0 30.93750027-25.3125 56.25000027-56.25000027 56.25000026s-56.25000027-25.3125-56.24999946-56.25000026v-562.49999946c0-30.93750027 25.3125-56.25000027 56.24999946-56.25000028s56.25000027 25.3125 56.25000027 56.25000028V665.24999973z m154.68749974 0c0 30.93750027-25.3125 56.25000027-56.24999947 56.25000026s-56.25000027-25.3125-56.25000027-56.25000026v-562.49999946c0-30.93750027 25.3125-56.25000027 56.25000027-56.25000028s56.25000027 25.3125 56.24999945 56.25000028V665.24999973z m154.68750053 0c0 30.93750027-25.3125 56.25000027-56.25000027 56.25000026s-56.25000027-25.3125-56.25000027-56.25000026v-562.49999946c0-30.93750027 25.3125-56.25000027 56.25000027-56.25000028s56.25000027 25.3125 56.25000027 56.25000028V665.24999973z m154.68749973 0c0 30.93750027-25.3125 56.25000027-56.25000027 56.25000026s-56.25000027-25.3125-56.24999946-56.25000026v-562.49999946c0-30.93750027 25.3125-56.25000027 56.24999946-56.25000028s56.25000027 25.3125 56.25000027 56.25000028V665.24999973z"  horiz-adv-x="1024" />

    
    <glyph glyph-name="instance" unicode="&#59261;" d="M708 668.8h-390.4l-172.8-307.2v-280.8h726.4v276.8l-163.2 311.2zM341.6 629.6h342.4l144-270.4h-262.4v-85.6h-120v85.6h-260l156 270.4zM830.4 120h-646.4v200h221.6v-85.6h200.8v85.6h224v-200zM351.2 562.4h312v-37.6h-312zM329.6 475.2h357.6v-37.6h-357.6z"  horiz-adv-x="1024" />

    
    <glyph glyph-name="flow" unicode="&#58887;" d="M652.8 896H499.2C435.584 896 384 843.072 384 777.856c0-65.28 51.584-118.144 115.2-118.144h153.6c63.616 0 115.2 52.864 115.2 118.144S716.416 896 652.8 896z m0-157.568H499.2a39.04 39.04 0 0 0-38.4 39.424 39.04 39.04 0 0 0 38.4 39.36h153.6c21.12 0 38.4-17.728 38.4-39.36a39.04 39.04 0 0 0-38.4-39.424z m0-236.288H499.2C435.584 502.144 384 449.28 384 384c0-65.28 51.584-118.144 115.2-118.144h153.6c63.616 0 115.2 52.928 115.2 118.144 0 65.28-51.584 118.144-115.2 118.144z m0-157.504H499.2A39.04 39.04 0 0 0 460.8 384a39.04 39.04 0 0 0 38.4 39.36h153.6c21.12 0 38.4-17.728 38.4-39.36a39.04 39.04 0 0 0-38.4-39.36z m0-236.352H499.2c-63.616 0-115.2-52.864-115.2-118.144S435.584-128 499.2-128h153.6c63.616 0 115.2 52.928 115.2 118.144 0 65.28-51.584 118.144-115.2 118.144z m0-157.504H499.2a39.04 39.04 0 0 0-38.4 39.36 39.04 39.04 0 0 0 38.4 39.424h153.6c21.12 0 38.4-17.728 38.4-39.424a39.04 39.04 0 0 0-38.4-39.36z m-422.4 78.72a151.04 151.04 0 0 0-108.672 46.08 158.976 158.976 0 0 0-44.928 111.488c0 42.176 16 81.664 44.928 111.488a150.528 150.528 0 0 0 108.672 46.08h76.8v78.72H230.4c-127.232 0-230.4-105.792-230.4-236.288s103.168-236.288 230.4-236.288V-128l115.2 118.144-115.2 118.144v-78.72zM921.6 817.28h-76.8v-78.72h76.8a151.04 151.04 0 0 0 108.672-46.08c29.056-29.824 44.928-69.376 44.928-111.488 0-42.176-16-81.664-44.928-111.488a151.04 151.04 0 0 0-108.672-46.08V502.144L806.4 384l115.2-118.144v78.72c127.232 0 230.4 105.856 230.4 236.352s-103.168 236.288-230.4 236.288z"  horiz-adv-x="1152" />

    
    <glyph glyph-name="icos" unicode="&#59109;" d="M826.43 181.293h-72.828v72.798c0 9.888-7.96399999 17.887-17.797 17.887-9.888 0-17.91699999-8.00000001-17.91700001-17.887v-72.798h-72.82199999c-9.888 0-17.857-7.999-17.85700001-17.887 0-9.858 7.97-17.857 17.85700001-17.857h72.82199999v-72.828c0-9.858 8.029-17.857 17.91700001-17.857 9.834 0 17.797 7.999 17.797 17.857V145.54999999999995h72.828c9.887 0 17.91699999 7.999 17.917 17.857-0.001 9.887-8.03 17.886-17.917 17.886zM813.05199999 372.37200000999997V694.067c0 89.434-191.662 137.71-371.97799999 137.71-180.262 0-371.865-48.27600001-371.865-137.71v-616.163c0-89.494 191.603-137.799 371.865-137.79900001 68.927 0 135.762 6.779 194.104 19.37000001 28.846-13.43699999 60.84399999-21.145 94.63399999-21.145 124.07 0 225.053 100.94799999 225.05300001 225.048 0.001 94.728-58.865 175.811-141.81300001 208.99400001z m-83.23999998 16.14199999c-13.783 0-27.161-1.424-40.19300001-3.812 35.833 11.377 66.079 25.565 87.659 42.463v-43.797c-15.29600001 3.311-31.175 5.146-47.46599999 5.146zM505.813 183.39c-20.942-1.34000001-42.582-2.15600001-64.739-2.156-192.359 0-336.151 53.923-336.151 102.115V427.16400001c63.75-49.818 203.003-76.199 336.151-76.19900001 72.536 0 146.871 7.827 209.924 23.009C571.66000001 344.163 513.491 270.99 505.813 183.39zM116.32399999 624.354c0.697-0.435 1.281-0.906 2.03700001-1.34a214.568 214.568 0 0 1 12.621-7.445c1.167-0.608 2.329-1.221 3.49-1.80499999 3.723-2.001 7.678-3.955 11.69200001-5.84300001 0.989-0.465 2.037-0.959 3.08499999-1.424 4.825-2.21 9.887-4.336 15.12300001-6.427 1.281-0.52400001 2.615-1.019 3.95499999-1.513a372.429 372.429 0 0 1 13.49099999-4.914c1.281-0.441 2.561-0.90500001 3.84200002-1.37a616.40399999 616.40399999 0 0 1 17.27299999-5.408c1.4-0.411 2.853-0.816 4.24699999-1.22099999 4.89-1.4 9.887-2.734 15.01000001-4.04400001 1.513-0.405 3.139-0.816 4.771-1.221a626.865 626.865 0 0 1 18.846-4.39c1.394-0.322 2.907-0.584 4.3-0.906 5.355-1.13200001 10.823-2.24000001 16.404-3.258 1.745-0.31600001 3.49-0.667 5.23599999-0.98899999 6.749-1.191 13.497-2.353 20.35900001-3.40100001 1.281-0.202 2.50200001-0.345 3.723-0.554 5.93200001-0.87 11.925-1.715 17.917-2.502l5.581-0.697c7.10000001-0.87 14.194-1.686 21.407-2.383 0.929-0.11900001 1.97800001-0.202 3.026-0.292 6.39699999-0.614 12.794-1.16099999 19.25099999-1.65599999 1.92399999-0.149 3.78200001-0.29200001 5.64700001-0.44100001 7.326-0.518 14.659-0.959 22.104-1.334 0.465-0.03 1.042-0.06000001 1.62600001-0.089 6.862-0.321 13.842-0.554 20.70999999-0.756 1.977-0.03 3.83600001-0.083 5.7-0.14299999 7.445-0.149 14.891-0.262 22.277-0.26200001s14.831 0.113 22.277 0.26200001c1.864 0.06000001 3.78200001 0.113 5.70000001 0.14299999 6.862 0.203 13.842 0.435 20.70999999 0.756 0.578 0.03 1.16099999 0.06000001 1.686 0.089 7.386 0.37500001 14.718 0.816 22.04400001 1.334 1.858 0.149 3.78200001 0.29200001 5.69999999 0.44100001a825.785 825.785 0 0 1 19.43 1.68599999c0.929 0.089 1.858 0.143 2.788 0.232a851.926 851.926 0 0 1 21.526 2.442c1.745 0.203 3.49 0.435 5.289 0.667a901.366 901.366 0 0 1 18.441 2.53100001c1.048 0.179 2.21 0.351 3.25800001 0.49399999a862.424 862.424 0 0 1 20.65099999 3.461c1.626 0.29200001 3.199 0.613 4.825 0.905 5.76 1.072 11.4 2.21 16.987 3.37100001 1.281 0.29200001 2.561 0.52400001 3.836 0.816 6.51599999 1.394 12.913 2.907 19.19700001 4.44899999 1.513 0.37500001 2.907 0.75599999 4.41999999 1.132a635.598 635.598 0 0 1 15.355 4.16300001c1.281 0.37500001 2.68 0.75 3.955 1.13199999a537.008 537.008 0 0 1 17.452 5.46800001c1.221 0.435 2.442 0.87 3.663 1.28099999a434.976 434.976 0 0 1 13.78899999 5.027c1.221 0.471 2.561 0.935 3.72300001 1.45900001a332.54099999 332.54099999 0 0 1 15.236 6.42699999c1.048 0.465 1.977 0.959 3.026 1.424a322.22000001 322.22000001 0 0 1 11.752 5.843 63.02000001 63.02000001 0 0 1 3.37099999 1.805 231.90000001 231.90000001 0 0 1 12.68100001 7.416c0.697 0.464 1.4 0.959 2.09700001 1.42999999 3.371 2.18000001 6.51599999 4.449 9.59599999 6.77200001 0.52400001 0.411 1.221 0.786 1.745 1.221v-143.702c0-48.133-143.791-101.99600001-336.204-101.996-192.359 0-336.151 53.863-336.151 101.996V632.4069999999999c0.584-0.405 1.167-0.786 1.745-1.191 3.023-2.329 6.28100001-4.622 9.65299999-6.862z m324.75000001 171.679c192.413 0 336.20399999-53.833 336.204-101.966 0-48.163-143.791-101.99600001-336.204-101.996-192.359 0-336.151 53.833-336.151 101.996 0 48.133 143.792 101.966 336.151 101.966z m0-820.185c-192.359 0-336.151 53.893-336.151 102.055V221.74900000000002c63.75-49.848 203.003-76.259 336.151-76.259 22.04400001 0 43.565 0.816 64.507 2.09699999 4.539-64.858 36.53-122.152 84.574-160.33799999-46.418-7.47599998-97.142-11.40100001-149.081-11.401z m288.73800001-1.775c-104.408 0-189.333 84.925-189.33300001 189.304 0 104.438 84.925 189.393 189.33300001 189.393 104.414 0 189.333-84.955 189.33299999-189.393 0.001-104.379-84.918-189.304-189.33299999-189.304z"  horiz-adv-x="1024" />

    
    <glyph glyph-name="318stream-copy" unicode="&#60803;" d="M1104.62885995 226.31202006c-1.68230832 0-3.15387547 0.5887717-4.73045111 0.94580055-100.89939237 3.19587886-122.7440536 104.8310548-205.51970601 104.8310548-84.1002077 0-84.1002077-105.12507856-210.25088131-105.12507855s-126.15067362 105.12507856-210.25088132 105.12507855c-82.79665411 0-104.64203954-101.61417425-205.519706-104.83105481-1.57657564-0.35775304-3.04886698-0.94580054-4.73117532-0.94580054-11.62697375 0-21.02487087 9.41889882-21.02487087 21.02487087s9.39789713 21.02487087 21.02487087 21.02487088c84.1002077 0 105.12507856 105.12507856 210.25088132 105.12507856s126.15067362-105.12507856 210.25088132-105.12507856 105.12507856 105.12507856 210.25088131 105.12507856 126.15067362-105.12507856 210.25088131-105.12507856c11.60597205 0 21.02559507-9.39789713 21.02559507-21.02487088s-9.41889882-21.02487087-21.02559507-21.02487087zM1104.62885995 394.51243544c-1.68230832 0-3.15387547 0.5887717-4.73045111 0.94580054-100.89939237 3.21688056-122.7440536 104.8310548-205.51970601 104.8310548-84.1002077 0-84.1002077-105.12507856-210.25088131-105.12507856s-126.15067362 105.12507856-210.25088132 105.12507856c-82.79665411 0-104.64203954-101.61417425-205.519706-104.8310548-1.57657564-0.35775304-3.04886698-0.94580054-4.73117532-0.94580055-11.62697375 0-21.02487087 9.41889882-21.02487087 21.02487087 0 11.60597205 9.39789713 21.02487087 21.02487087 21.02487088 84.1002077 0 105.12507856 105.12507856 210.25088132 105.12507856s126.15067362-105.12507856 210.25088132-105.12507857 105.12507856 105.12507856 210.25088131 105.12507857 126.15067362-105.12507856 210.25088131-105.12507857c11.60597205 0 21.02559507-9.39789713 21.02559507-21.02487087 0-11.60597205-9.41889882-21.02487087-21.02559507-21.02487086zM1104.62885995 562.7128508200001c-1.68230832 0-3.15387547 0.5887717-4.73045111 0.94580053-100.89939237 3.21688056-122.7440536 104.8310548-205.51970601 104.83105482-84.1002077 0-84.1002077-105.12507856-210.25088131-105.12507857s-126.15067362 105.12507856-210.25088132 105.12507857c-82.79665411 0-104.64203954-101.61417425-205.519706-104.83105482-1.57657564-0.35775304-3.04886698-0.94580054-4.73117532-0.94580053-11.62697375 0-21.02487087 9.41889882-21.02487087 21.02487087 0 11.62697375 9.39789713 21.02487087 21.02487087 21.02487087 84.1002077 0 105.12507856 105.12507856 210.25088132 105.12507855s126.15067362-105.12507856 210.25088132-105.12507855 105.12507856 105.12507856 210.25088131 105.12507855 126.15067362-105.12507856 210.25088131-105.12507855c11.60597205 0 21.02559507-9.39789713 21.02559507-21.02487087 0-11.60597205-9.41889882-21.02487087-21.02559507-21.02487087zM263.62605888 100.16207063000002c84.1002077 0 105.12507856 105.12507856 210.25088132 105.12507855s126.15067362-105.12507856 210.25088132-105.12507855 105.12507856 105.12507856 210.25088131 105.12507855 126.15067362-105.12507856 210.25088132-105.12507855c11.60597205 0 21.02487087-9.41889882 21.02487087-21.02559507 0-11.62697375-9.41889882-21.02487087-21.02487087-21.02487087-1.68230832 0-3.15387547 0.56777-4.73045111 0.94580054-100.89939237 3.19587886-122.7440536 104.8310548-205.51970602 104.83105481-84.1002077 0-84.1002077-105.12507856-210.25088131-105.12507856s-126.15067362 105.12507856-210.25088131 105.12507856c-82.79665411 0-104.64203954-101.61417425-205.51970601-104.83105481-1.57657564-0.35775304-3.04886698-0.94580054-4.73045112-0.94580054-11.62697375 0-21.02559507 9.39789713-21.02559506 21.02487087 0 11.60597205 9.39789713 21.02559507 21.02559506 21.02559507z"  horiz-adv-x="1388" />

    
    <glyph glyph-name="system-copy" unicode="&#60804;" d="M976.363 150.544h-15.891v206.593c0 61.332-49.909 111.241-111.241 111.241h-270.16v127.134h15.891c26.228 0 47.677 21.477 47.677 47.674v158.919c0 26.259-21.449 47.675-47.677 47.675h-158.918c-26.227 0-47.674-21.417-47.674-47.675v-158.917c0-26.196 21.449-47.674 47.674-47.674h15.892v-127.134h-270.16c-61.332 0-111.243-49.908-111.243-111.242v-206.593h-15.891c-26.227 0-47.674-21.415-47.674-47.673v-158.918c0-26.196 21.449-47.675 47.674-47.675h158.918c26.228 0 47.674 21.481 47.674 47.675v158.918c0 26.258-21.447 47.673-47.674 47.673h-15.891v190.701h254.269v-190.701h-15.892c-26.227 0-47.674-21.415-47.674-47.673v-158.918c0-26.196 21.449-47.675 47.674-47.675h158.917c26.228 0 47.677 21.481 47.677 47.675v158.918c0 26.258-21.449 47.673-47.677 47.673h-15.891v190.701h254.267v-190.701h-15.891c-26.228 0-47.675-21.415-47.675-47.673v-158.918c0-26.196 21.447-47.675 47.675-47.675h158.917c26.227 0 47.675 21.481 47.675 47.675v158.918c0.002 26.255-21.446 47.67-47.673 47.67zM197.668-40.155h-127.134v127.133h127.134v-127.133zM579.070-40.155h-127.133v127.133h127.133v-127.133zM451.937 659.078v127.134h127.133v-127.134h-127.133zM960.47-40.155h-127.134v127.133h127.134v-127.133z"  horiz-adv-x="1024" />

    
    <glyph glyph-name="performance-copy" unicode="&#60805;" d="M226.847 648.785c0 0-40.735-8.148-40.735-32.589v-411.434c0 0 0-85.546 81.472-85.546h545.863c0 0 28.515 12.22 28.515 36.663s-28.515 40.735-28.515 40.735h-517.348c0 0-28.515-4.072-28.515 24.442v101.84l158.871 48.883 162.944-130.355 252.563 236.27v122.208l-244.417-236.27-162.944 122.208-162.944-57.031v187.386c-4.072 4.072-20.368 32.589-44.81 32.589z"  horiz-adv-x="1031" />

    
    <glyph glyph-name="zeppelin_logo-copy-copy" unicode="&#60809;" d="M902.543 687.464c-69.513-6.166-149.303-28.403-197.14-54.376-20.368-11.213-69.887-44.287-91.001-60.917-93.245-73.25-167.802-137.718-213.771-184.621-36.25-36.999-52.695-61.291-65.029-96.421-21.115-60.545-12.705-113.052 24.106-149.117 23.918-23.545 49.332-36.999 98.104-51.949 45.22-14.014 86.891-14.948 183.499-4.11 17.752 2.057 33.075 3.737 33.822 3.737 0.934 0 1.121 5.046 0.747 11.025l-0.747 11.212 8.035 2.057c58.675 15.509 90.815 27.654 132.673 50.641 13.828 7.474 42.604 12.706 79.229 14.202 23.357 0.934 29.899 0.561 39.242-2.057 11.398-3.365 23.358-12.893 23.358-18.686 0-1.681 0.188-2.989 0.56-2.989 1.868 0 35.129 14.202 52.321 22.237 25.787 11.96 47.089 25.039 65.962 40.176 50.828 40.924 102.401 116.602 125.572 184.434 11.772 33.822 14.202 48.772 14.202 82.033 0 40.549-5.793 64.093-21.863 88.199-9.904 15.322-39.427 44.474-58.675 58.115-37.373 26.533-86.331 46.528-134.167 54.751-20.555 3.551-73.624 4.859-99.037 2.428zM867.974 534.425l6.541-1.309-6.541-1.121c-3.55-0.561-20.18-2.802-36.812-5.046-74.558-9.531-118.658-21.863-187.797-52.882-76.802-34.57-150.237-75.68-237.877-133.046-33.449-21.863-37.747-22.984-18.313-4.672 50.828 47.837 112.305 88.573 197.7 130.617 78.856 39.054 120.153 53.816 178.454 63.907 36.625 6.166 84.276 7.849 104.644 3.55zM828.733 415.58c-161.262-62.413-304.96-122.957-402.689-169.858-38.307-18.499-56.993-27.096-56.993-26.161 0 1.494 45.595 31.393 67.269 43.912 30.458 17.565 50.827 27.654 118.658 58.861 93.058 42.791 123.33 54.751 203.68 80.538 31.018 9.905 106.511 30.272 113.052 30.458 1.494 0-17.752-7.849-42.979-17.752zM902.543 329.623c-11.772-10.652-51.761-39.615-77.547-55.872-59.61-37.747-183.499-87.265-277.678-110.996-20.555-5.232-88.759-17.378-90.067-16.257-0.188 0.374 14.949 5.793 33.636 12.334 93.058 31.954 205.362 73.809 265.344 99.037 30.458 12.893 69.513 32.702 115.482 58.675 21.115 11.772 38.68 21.488 39.241 21.488 0.561 0-3.177-3.738-8.408-8.408zM977.475 269.64c-7.662-14.575-31.58-37.747-55.872-54.004-14.015-9.531-62.785-35.317-64.093-34.009-0.374 0.561 10.838 8.782 25.039 18.313 31.766 21.677 66.336 48.21 83.527 64.093 7.287 6.728 13.267 11.772 13.641 11.586 0.374-0.374-0.56-2.989-2.243-5.979zM430.153 477.058c-3.924-3.737-8.969-11.025-11.586-16.257-5.046-10.463-11.213-43.352-7.662-40.735 1.121 0.934 13.828 11.213 28.217 22.797 14.389 11.772 26.533 21.488 26.909 21.863 0.374 0.188-0.747 2.802-2.616 5.419-10.463 15.883-22.049 18.313-33.262 6.914zM271.881 164.622c-53.63-26.721-70.446-37.559-62.785-40.55 4.485-1.681 15.697 0.374 42.791 7.849 13.268 3.737 35.318 9.157 49.333 11.96 13.828 2.802 25.414 5.605 25.973 5.979 0.374 0.561-2.802 8.597-7.101 17.939l-8.035 17.004-40.176-20.18zM856.762 164.437c-26.161-5.231-33.822-8.035-56.806-21.302-22.984-13.453-39.242-19.993-73.998-30.086-37.373-10.838-37.933-11.212-38.68-13.081-0.188-0.934 0.934-3.737 2.802-5.979 3.177-4.297 3.365-4.297 76.053-5.419 72.689-1.121 150.985 1.121 160.328 4.672 4.11 1.494 5.232 4.673 10.651 27.469 3.365 14.202 7.101 27.282 8.222 29.15 2.428 4.11 0.374 7.849-7.1 13.453-4.673 3.55-8.222 3.923-34.384 4.297-22.423 0.188-33.449-0.374-47.089-3.177zM940.477 149.114c0.747-4.297-8.408-6.541-36.438-8.969-22.238-1.868-97.355-2.616-95.675-1.121 1.309 1.309 54.938 10.090 72.69 12.146 8.783 0.934 25.601 1.494 37.373 1.309 18.499-0.188 21.488-0.56 22.050-3.365zM918.427 120.897c7.101-3.551 6.914-8.035-0.374-9.531-3.365-0.561-34.756-1.494-69.701-2.057-58.301-0.748-62.785-0.56-54.19 1.868 8.969 2.616 50.266 9.531 65.401 10.838 19.993 1.868 54.376 1.121 58.861-1.121z"  horiz-adv-x="1694" />

    
    <glyph glyph-name="spark1-copy" unicode="&#60810;" d="M773.695 207.27l146.827-41.076-87.636 172.533 132.994 162.971-199.105-47.661-97.631 161.435-39.207-201.408-198.335-67.649 146.059-63.037-99.165-66.88-117.619 49.968s-64.574 29.212-64.574 79.948 66.112 68.417 66.112 68.417l196.028 60.985 32.801 190.645s15.375 75.85 67.649 75.85 73.799-60.474 100.45-100.45l54.323-91.223 194.748 51.25s159.895 33.824 64.574-102.495l-138.374-161.949 81.996-159.895s63.549-130.177-86.099-112.747l-141.446 45.1-15.375 97.376z"  horiz-adv-x="1448" />

    
    <glyph glyph-name="desktop-copy" unicode="&#60813;" d="M191.126 188.468h311.962v-32.589c0-5.996 3.992-10.864 8.914-10.864s8.914 4.867 8.914 10.864v32.589h311.962c14.743 0 26.739 14.621 26.739 32.589v477.969c0 17.966-11.998 32.589-26.739 32.589h-641.75c-14.743 0-26.739-14.621-26.739-32.589v-477.969c0-17.966 11.998-32.589 26.739-32.589zM182.213 699.026c0 5.996 3.992 10.864 8.914 10.864h641.75c4.92 0 8.913-4.867 8.913-10.864v-477.969c0-5.996-3.992-10.864-8.913-10.864h-641.75c-4.92 0-8.914 4.867-8.914 10.864v477.969zM226.778 253.645h570.443c4.92 0 8.914 4.867 8.914 10.864v391.066c0 5.996-3.992 10.864-8.914 10.864h-570.443c-4.92 0-8.914-4.867-8.914-10.864v-391.066c0-5.996 3.992-10.864 8.914-10.864zM235.692 644.711h552.618v-369.34h-552.618v369.34zM413.956 123.289c-20.322 0-35.653-18.684-35.653-43.451v-32.589c0-5.996 3.992-10.864 8.914-10.864h249.57c4.92 0 8.914 4.867 8.914 10.864v30.959c0 25.267-15.652 45.081-35.653 45.081h-196.091zM627.871 78.208v-20.097h-231.743v21.726c0 12.797 7.327 21.726 17.827 21.726h196.091c10.161 0 17.827-10.038 17.827-23.354z"  horiz-adv-x="1024" />

    
    </font>
</defs>
</svg>
